<svg width="235" height="101" viewBox="0 0 235 101" fill="none" xmlns="http://www.w3.org/2000/svg">
<path d="M48.8911 47.7911H58.5482C53.799 37.1179 43.1777 30.1248 30.8428 30.1248V51.697C30.8428 56.4375 34.6994 60.3717 39.4424 60.2274H51.1926C49.6407 57.2909 48.8911 53.8147 48.8911 50.1315V47.7911Z" fill="#639E30"/>
<path d="M72.0866 70.9099C60.8278 70.9099 51.8301 62.0312 51.8301 50.762H63.3564C68.1429 50.762 72.0897 54.6962 72.0897 59.5716V70.9099H72.0866Z" fill="#F8AA36"/>
<path d="M177.484 36.2174C177.484 34.5138 176.862 33.08 175.708 31.8282C174.732 30.8431 173.488 30.3945 172.156 30.2156L171.625 30.1247V46.5203V57.272C171.625 58.8846 172.956 60.2273 174.554 60.2273C176.153 60.2273 177.484 58.8846 177.484 57.272V47.06V36.2174ZM165.924 30.1247H161.215C161.215 30.1247 161.215 30.1247 161.125 30.1247H159.436C155.262 30.1247 151.707 31.5584 148.777 34.5138C145.757 37.4692 144.336 40.9641 144.336 45.1744V60.2273L144.868 60.1363C146.199 59.9575 147.356 59.421 148.42 58.3449C149.664 57.09 150.195 55.7472 150.195 54.0437V45.1776V45.0866C150.195 42.4889 151.085 40.2488 152.861 38.4574C154.637 36.575 156.857 35.6809 159.433 35.6809H165.917C167.426 35.6809 168.67 34.4259 168.67 32.9043C168.676 31.2918 167.432 30.1247 165.924 30.1247ZM204.135 59.694C203.958 58.4391 203.426 57.3629 202.537 56.3778C201.383 55.2139 200.048 54.6743 198.45 54.6743H195.52C192.945 54.6743 190.724 53.6891 188.948 51.8977C187.172 50.0153 186.283 47.7753 186.283 45.2685V39.1759C186.283 39.0849 186.283 38.906 186.283 38.7272V32.9043C186.283 31.2918 184.952 29.949 183.353 29.949C181.845 29.949 180.601 31.2039 180.423 32.7255V32.9953V40.252C180.423 40.252 180.423 40.252 180.423 40.3429V45.1776C180.423 49.3879 181.932 52.8828 184.865 55.8382C187.885 58.7936 191.349 60.2273 195.523 60.2273H204.228L204.135 59.694ZM103.723 34.5169C100.703 31.5616 97.1515 30.1278 93.0647 30.1278C88.8909 30.1278 85.4261 31.5616 82.4062 34.5169C79.3862 37.4723 77.9648 41.0583 77.9648 45.1776C77.9648 49.3879 79.4733 52.8828 82.4062 55.8382C85.4261 58.7936 88.8909 60.2273 93.0647 60.2273H108.252V45.1776C108.252 41.0583 106.743 37.4723 103.723 34.5169ZM102.302 54.6743H93.0647C90.4895 54.6743 88.2688 53.6891 86.4929 51.8977C84.717 50.1063 83.8275 47.8663 83.8275 45.2685V45.1776C83.8275 42.5799 84.717 40.3398 86.4929 38.4574C88.2688 36.575 90.4895 35.5899 93.0647 35.5899C93.0647 35.5899 93.0647 35.5899 93.1549 35.5899C95.7301 35.5899 97.9508 36.575 99.7267 38.4574C101.503 40.3398 102.392 42.5799 102.392 45.1776V54.6743H102.302Z" fill="#003C61"/>
<path d="M136.949 34.5168C133.929 31.5614 130.377 30.1277 126.29 30.1277C122.116 30.1277 118.652 31.5614 115.632 34.5168C112.612 37.4722 111.19 41.0581 111.19 45.1774V70.891L111.722 70.8C113.053 70.6212 114.21 70.0847 115.274 69.0086C116.518 67.7537 117.05 66.3199 117.05 64.6195V60.2303H126.287C130.461 60.0515 134.016 58.6178 136.946 55.6624C139.966 52.707 141.387 49.2121 141.387 45.0018C141.39 41.0581 139.879 37.4722 136.949 34.5168ZM135.528 45.1774C135.528 47.7752 134.638 50.0152 132.862 51.8976C131.086 53.78 128.866 54.6741 126.29 54.6741H116.963V45.2653C116.963 45.2653 116.963 45.2653 116.963 45.1743C116.963 42.5766 117.852 40.3366 119.628 38.5451C121.317 36.7537 123.357 35.8564 125.668 35.7686V35.8596L126.2 35.7686C128.775 35.7686 130.996 36.7537 132.772 38.6361C134.551 40.3397 135.437 42.5797 135.528 45.1774Z" fill="#003C61"/>
</svg>
