<svg width="151" height="51" viewBox="0 0 151 51" fill="none" xmlns="http://www.w3.org/2000/svg">
<path d="M42.1097 43.141C38.397 43.141 35.3767 41.1097 35.3767 38.6132C35.3767 36.3375 37.4585 34.0412 42.1097 34.0412H50.4302V39.317C49.1455 41.7125 45.2115 43.141 42.1097 43.141ZM52.709 30.9392C52.709 26.263 49.4062 23.4712 43.8737 23.4712C41.0782 23.4712 38.2147 24.1857 36.4002 25.3365L36.2295 25.445V27.7345H38.5522V26.81C40.0702 26.1442 42.0392 25.75 43.8737 25.75C46.3225 25.75 50.4302 26.4242 50.4302 30.9392V31.7187H42.1097C35.9182 31.7187 33.0982 35.2922 33.0982 38.6132C33.0982 42.3907 37.1407 45.464 42.1097 45.464C45.2247 45.464 48.3905 44.2595 50.4302 42.344V45.067H53.503V42.744H52.709V30.9392Z" fill="#BD1D1D"/>
<path d="M61.2949 29.4469V23.8681H58.2222V26.1471H58.9719V45.0669H61.2949V36.8049C61.2949 30.9594 65.3824 26.8221 68.4539 25.9366V26.5436H70.7327V23.4711H69.6154C67.0012 23.4711 63.4774 25.5179 61.2949 29.4469Z" fill="black"/>
<path d="M75.4371 26.4852H76.1869V45.4052H78.5099V24.2062H75.4371V26.4852Z" fill="black"/>
<path d="M92.2406 43.141C88.5278 43.141 85.5073 41.1097 85.5073 38.6132C85.5073 36.3375 87.5893 34.0412 92.2406 34.0412H100.561V39.317C99.2763 41.7125 95.3423 43.141 92.2406 43.141ZM102.84 30.9392C102.84 26.263 99.537 23.4712 94.0048 23.4712C91.2091 23.4712 88.3456 24.1857 86.5311 25.3365L86.3603 25.445V27.7345H88.6831V26.81C90.2011 26.1442 92.1703 25.75 94.0048 25.75C96.4533 25.75 100.561 26.4242 100.561 30.9392V31.7187H92.2406C86.0491 31.7187 83.2291 35.2922 83.2291 38.6132C83.2291 42.3907 87.2716 45.464 92.2406 45.464C95.3556 45.464 98.5213 44.2595 100.561 42.344V45.067H103.634V42.744H102.84V30.9392Z" fill="black"/>
<path d="M123.304 41.128L111.517 23.868H108.353V26.147H109.103V45.067H111.426V27.7693L123.432 45.464H125.626V23.868H123.304V41.128Z" fill="black"/>
<path d="M147.115 28.7377C144.987 30.6654 142.072 33.3059 139.438 33.3059H132.395C132.963 29.0377 136.679 25.7499 141.026 25.7499C143.404 25.7499 145.687 26.7594 147.344 28.5309L147.115 28.7377ZM148.713 30.4444C149.095 30.1009 149.436 29.7934 149.742 29.5347L150.52 28.8214L149.879 27.9879C147.774 25.1177 144.547 23.4712 141.026 23.4712C134.963 23.4712 130.03 28.4042 130.03 34.4677C130.03 40.5309 134.963 45.4639 141.026 45.4639C144.084 45.4639 146.936 44.2161 149.057 41.9514L149.309 41.6812L147.625 40.1264L147.375 40.3889C145.689 42.1637 143.434 43.1409 141.026 43.1409C136.677 43.1409 132.962 39.8729 132.395 35.6289H139.438C142.954 35.6289 146.42 32.5089 148.713 30.4444" fill="black"/>
<path d="M33.4948 11.4592C33.185 11.5207 26.243 13.8434 25.0603 14.5097C23.8723 15.1822 21.815 16.5387 18.988 16.6054C16.1585 16.6684 3.11554 14.2572 1.97479 14.1937C1.97479 14.1937 2.33954 17.3489 2.64204 17.5789C2.94004 17.8099 9.43479 20.3857 10.7483 20.5102C11.6095 20.5939 25.0515 21.8279 27.3448 21.0032C29.058 20.3912 30.3355 17.9992 30.3355 17.9992L34.4518 13.1827C34.4518 13.1827 34.621 11.2525 33.4948 11.4592Z" fill="#BD1D1D"/>
<path d="M24.7244 8.81079C24.7244 8.81079 23.9899 13.4588 23.2014 13.739C22.4029 14.017 19.1894 14.8213 17.3681 14.285C15.5626 13.7453 15.0384 12.4848 15.0384 12.4848C15.0384 12.4848 15.4184 9.79554 15.6721 8.99079C15.9199 8.18529 18.0674 5.21854 18.5909 4.52729C18.8514 4.18354 21.8356 4.79279 22.0886 5.15404C22.3434 5.51954 24.7974 8.40029 24.7244 8.81079Z" fill="#BD1D1D"/>
<path d="M5.66703 29.6092C6.70503 29.3527 9.87202 31.0145 10.939 30.919C12.0005 30.8162 18.7818 29.2217 20.7545 29.43C22.7295 29.6407 25.0758 29.8172 25.0758 29.8172L23.8245 37.14C23.8245 37.14 21.8995 38.0105 21.4395 37.9062C20.9785 37.8065 17.8248 35.3187 14.871 35.4315C11.9175 35.5412 5.72628 34.6175 5.72628 34.6175C5.72628 34.6175 4.62053 29.8657 5.66703 29.6092" fill="#BD1D1D"/>
<path d="M8.1265 28.411C10.506 29.4677 10.5132 29.4255 11.3117 29.4957C12.2525 29.5902 19.3185 27.651 23.8395 27.554C23.8395 27.554 25.2062 24.1095 25.0885 23.1515C25.0885 23.1515 11.6852 21.7827 11.2667 21.7425C10.849 21.7045 8.3 26.6445 8.1265 28.411Z" fill="#BD1D1D"/>
<path d="M22.8118 40.2174C22.8118 40.2174 23.861 44.8639 24.0288 45.9176C24.1905 46.9664 24.1385 50.6261 24.1385 50.6261C24.1385 50.6261 22.8268 50.7206 21.1783 50.6219C19.644 50.5349 18.4693 50.6219 18.112 50.5666C16.9113 50.3634 15.7263 49.9621 14.7575 49.3159C14.2535 48.9751 16.1028 43.5286 16.334 42.3381C16.4923 41.5159 16.6373 38.6236 17.1045 37.8749C17.5728 37.1204 22.5413 39.1601 22.8118 40.2174Z" fill="#BD1D1D"/>
<path d="M12.13 36.8394C12.13 36.8394 7.48728 35.9232 6.29204 35.7732C5.09404 35.6204 -0.468959 45.6549 0.0317905 45.8437C4.28554 47.4387 6.59503 48.0282 8.18953 48.5677C8.99078 48.8332 10.2538 45.1902 11.382 43.1252C12.5983 40.8954 12.13 36.8394 12.13 36.8394Z" fill="#BD1D1D"/>
<path d="M38.1958 0.666861L38.5931 3.43061L41.3213 4.01386L38.8156 5.24561L39.0998 8.0256L37.1543 6.02511L34.6073 7.15436L35.9031 4.68286L34.0458 2.60586L36.7908 3.07786L38.1958 0.666861Z" fill="#F39200"/>
</svg>
