<svg width="165" height="30" viewBox="0 0 165 30" fill="none" xmlns="http://www.w3.org/2000/svg">
<path d="M164.024 14.392H161.372V20.996C161.372 22.062 161.944 22.556 162.906 22.556C163.296 22.556 163.686 22.478 164.024 22.348V25.052C163.504 25.234 162.984 25.312 162.412 25.312C160.098 25.312 158.46 23.934 158.46 21.282V14.392H156.51V11.74H158.46V8.776H161.372V11.74H164.024V14.392Z" fill="#242A33"/>
<path d="M150.541 11.428C153.011 11.428 154.649 13.092 154.649 15.614V25H151.737V16.55C151.737 15.172 150.853 14.262 149.501 14.262C147.993 14.262 147.031 15.198 147.031 16.602V25H144.119V11.74H147.031V13.092C147.863 12.026 149.059 11.428 150.541 11.428Z" fill="#242A33"/>
<path d="M141.545 17.902C141.545 18.448 141.467 19.02 141.389 19.488H131.145C131.587 21.412 133.277 22.686 135.955 22.686C137.645 22.686 139.309 22.166 140.739 21.36V24.064C139.387 24.844 137.567 25.312 135.695 25.312C130.833 25.312 128.025 22.322 128.025 18.448C128.025 14.418 131.015 11.428 134.941 11.428C138.893 11.428 141.545 14.392 141.545 17.902ZM134.941 14.054C133.069 14.054 131.587 15.302 131.145 17.2H138.581C138.451 15.562 136.995 14.054 134.941 14.054Z" fill="#242A33"/>
<path d="M122.041 11.428C124.173 11.428 125.629 12.884 125.629 15.12V25H122.717V16.056C122.717 14.964 122.041 14.262 120.975 14.262C119.805 14.262 119.025 14.99 119.025 16.108V25H116.113V16.056C116.113 14.964 115.411 14.262 114.345 14.262C113.175 14.262 112.395 14.99 112.395 16.108V25H109.483V11.74H112.395V12.754C113.123 11.896 114.137 11.428 115.411 11.428C116.893 11.428 118.063 12.13 118.635 13.3C119.363 12.078 120.533 11.428 122.041 11.428Z" fill="#242A33"/>
<path d="M106.909 17.902C106.909 18.448 106.831 19.02 106.753 19.488H96.5094C96.9514 21.412 98.6414 22.686 101.319 22.686C103.009 22.686 104.673 22.166 106.103 21.36V24.064C104.751 24.844 102.931 25.312 101.059 25.312C96.1974 25.312 93.3894 22.322 93.3894 18.448C93.3894 14.418 96.3794 11.428 100.305 11.428C104.257 11.428 106.909 14.392 106.909 17.902ZM100.305 14.054C98.4334 14.054 96.9514 15.302 96.5094 17.2H103.945C103.815 15.562 102.359 14.054 100.305 14.054Z" fill="#242A33"/>
<path d="M88.1473 25.312C83.9873 25.312 80.9973 22.322 80.9973 18.37C80.9973 14.496 83.9873 11.428 88.1473 11.428C89.3433 11.428 90.5393 11.688 91.5533 12.182V15.094C90.7213 14.6 89.5773 14.262 88.4073 14.262C85.7813 14.262 83.9873 16.004 83.9873 18.37C83.9873 20.736 85.7813 22.478 88.4073 22.478C89.5773 22.478 90.7213 22.14 91.5533 21.646V24.558C90.5393 25.052 89.3433 25.312 88.1473 25.312Z" fill="#242A33"/>
<path d="M73.4999 11.428C76.5419 11.428 78.6219 13.274 78.6219 16.082V25H76.0219V23.96C75.2159 24.818 74.0979 25.312 72.8239 25.312C70.3279 25.312 68.3259 23.414 68.3259 20.866C68.3259 18.37 70.3279 16.472 72.8239 16.472C73.9419 16.472 74.9559 16.862 75.7099 17.512V16.42C75.7099 14.99 74.5919 14.028 72.9539 14.028C71.6799 14.028 70.2239 14.6 69.2099 15.354V12.728C70.2239 12 71.8099 11.428 73.4999 11.428ZM73.5259 22.946C74.7479 22.946 75.7099 22.036 75.7099 20.866C75.7099 19.696 74.7479 18.838 73.5259 18.838C72.2779 18.838 71.3159 19.696 71.3159 20.866C71.3159 22.036 72.2779 22.946 73.5259 22.946Z" fill="#242A33"/>
<path d="M62.8093 25V6.28H65.7213V25H62.8093Z" fill="#242A33"/>
<path d="M53.6668 11.428C57.4108 11.428 60.2188 14.418 60.2188 18.37C60.2188 22.322 57.4108 25.312 53.6668 25.312C51.7168 25.312 50.1048 24.48 49.0128 23.128V29.94H46.1008V11.74H49.0128V13.612C50.1048 12.26 51.7168 11.428 53.6668 11.428ZM53.1208 22.478C55.4608 22.478 57.2028 20.736 57.2028 18.37C57.2028 16.004 55.4608 14.262 53.1208 14.262C50.7548 14.262 49.0128 16.004 49.0128 18.37C49.0128 20.736 50.7548 22.478 53.1208 22.478Z" fill="#242A33"/>
<path d="M43.9805 25H40.7046L38.1045 20.372L35.5565 25H32.3065L36.3106 18.344L32.3845 11.74H35.6605L38.1566 16.29L40.6525 11.74H43.9286L39.9766 18.344L43.9805 25Z" fill="#DC216E"/>
<path d="M24.6367 25.312C20.5807 25.312 17.5387 22.322 17.5387 18.37C17.5387 14.418 20.5807 11.428 24.6367 11.428C28.6667 11.428 31.7347 14.418 31.7347 18.37C31.7347 22.322 28.6667 25.312 24.6367 25.312ZM24.6367 22.478C26.9767 22.478 28.7187 20.736 28.7187 18.37C28.7187 16.004 26.9767 14.262 24.6367 14.262C22.2967 14.262 20.5287 16.004 20.5287 18.37C20.5287 20.736 22.2967 22.478 24.6367 22.478Z" fill="#DC216E"/>
<path d="M9.178 11.428C12.922 11.428 15.73 14.418 15.73 18.37C15.73 22.322 12.922 25.312 9.178 25.312C7.228 25.312 5.616 24.48 4.524 23.128V25H1.612V6.28H4.524V13.612C5.616 12.26 7.228 11.428 9.178 11.428ZM8.632 22.478C10.972 22.478 12.714 20.736 12.714 18.37C12.714 16.004 10.972 14.262 8.632 14.262C6.266 14.262 4.524 16.004 4.524 18.37C4.524 20.736 6.266 22.478 8.632 22.478Z" fill="#DC216E"/>
<path fill-rule="evenodd" clip-rule="evenodd" d="M45.0001 0C44.6361 5.4227 45.8027 6.7296 38 6.99981C45.8027 7.27022 44.6361 8.57878 45.0001 14C45.3639 8.57878 44.1973 7.27022 52 6.99981C44.1973 6.7296 45.3639 5.4227 45.0001 0" fill="#DC216E"/>
</svg>
