<svg width="126" height="32" viewBox="0 0 126 32" fill="none" xmlns="http://www.w3.org/2000/svg">
<g clip-path="url(#clip0_5751_1372)">
<path d="M18.799 6.82612e-06H1.09055C0.801318 6.82612e-06 0.523933 0.115198 0.319415 0.320239C0.114897 0.525281 0 0.803376 0 1.09335V14.0611C2.6581 14.495 5.73933 14.9732 6.76257 14.9501C8.60131 14.9057 9.93805 14.0225 10.7112 13.5829C11.4844 13.1432 15.9947 11.6353 16.1948 11.5948C16.9276 11.4598 16.8179 12.719 16.8179 12.719L14.1406 15.8583C14.1406 15.8583 13.3116 17.4183 12.1961 17.8155C10.7055 18.3535 1.96568 17.5494 1.40598 17.4954C0.926865 17.4044 0.456464 17.2721 0 17.1001V21.5583C0.517386 20.1564 1.5387 18.2802 1.74257 18.2976L10.7305 19.2174C10.8055 19.8421 9.91689 22.0867 9.91689 22.0867C6.97798 22.1503 2.38305 23.4133 1.77142 23.3516C1.28866 23.3092 1.25019 23.3304 0 22.7731V23.878C0.619325 24.0979 1.21557 24.3042 1.5387 24.2772C2.22919 24.2097 6.63947 23.1704 7.92043 23.3131C9.2014 23.4557 10.7305 23.5657 10.7305 23.5657L9.90728 28.3459C9.90728 28.3459 8.65709 28.9128 8.35704 28.8453C8.05699 28.7778 6.00668 27.1581 4.08524 27.2313C3.02161 27.2718 1.31366 27.1041 0 26.9479V27.7076C1.0867 27.9005 2.30804 28.1492 2.30804 28.1492C2.30804 28.1492 2.58116 30.5249 1.93491 32.0058H4.97576C5.00461 31.892 5.02769 31.7995 5.04115 31.7281C5.14501 31.1921 5.23349 29.3062 5.54123 28.8183C5.84897 28.3305 9.0783 29.6571 9.25333 30.3455C9.25333 30.3455 9.4322 31.1381 9.62069 32.0058H18.8029C19.0921 32.0058 19.3695 31.8906 19.574 31.6856C19.7785 31.4805 19.8934 31.2024 19.8934 30.9124V1.09721C19.8939 0.952976 19.866 0.810073 19.8111 0.676724C19.7563 0.543376 19.6757 0.422219 19.574 0.320233C19.4723 0.218248 19.3514 0.137448 19.2184 0.0824894C19.0854 0.0275306 18.9429 -0.000502821 18.799 6.82612e-06ZM9.49567 13.0854C8.97637 13.2666 6.88566 13.7892 5.70279 13.4402C4.51992 13.0912 4.18717 12.2678 4.18717 12.2678C4.18717 12.2678 4.43336 10.515 4.59877 9.98855C4.76418 9.46213 6.15671 7.52999 6.49714 7.07877C6.6664 6.85508 8.61285 7.25231 8.77056 7.48756C8.92828 7.72281 10.5324 9.60869 10.4843 9.87286C10.492 9.87286 10.015 12.9022 9.49567 13.0854ZM14.8292 9.50456C14.6157 6.32866 15.2985 5.56313 10.7401 5.40501C15.2985 5.24689 14.6157 4.47943 14.8292 1.30353C15.0427 4.47943 14.3599 5.24689 18.9183 5.40501C14.3676 5.56313 15.0504 6.32866 14.8369 9.50456H14.8292Z" fill="#BD1E1E"/>
<path d="M125.785 24.72H122.145L118.219 19.39V24.72H115.307V6H118.219V16.79L122.067 11.46H125.603L120.689 18.064L125.785 24.72Z" fill="#BD1D1D"/>
<path d="M108.877 25.032C104.717 25.032 101.727 22.042 101.727 18.09C101.727 14.216 104.717 11.148 108.877 11.148C110.073 11.148 111.269 11.408 112.283 11.902V14.814C111.451 14.32 110.307 13.982 109.137 13.982C106.511 13.982 104.717 15.724 104.717 18.09C104.717 20.456 106.511 22.198 109.137 22.198C110.307 22.198 111.451 21.86 112.283 21.366V24.278C111.269 24.772 110.073 25.032 108.877 25.032Z" fill="#BD1D1D"/>
<path d="M94.2299 11.148C97.2719 11.148 99.3519 12.994 99.3519 15.802V24.72H96.7519V23.68C95.9459 24.538 94.8279 25.032 93.5539 25.032C91.0579 25.032 89.0559 23.134 89.0559 20.586C89.0559 18.09 91.0579 16.192 93.5539 16.192C94.6719 16.192 95.6859 16.582 96.4399 17.232V16.14C96.4399 14.71 95.3219 13.748 93.6839 13.748C92.4099 13.748 90.9539 14.32 89.9399 15.074V12.448C90.9539 11.72 92.5399 11.148 94.2299 11.148ZM94.2559 22.666C95.4779 22.666 96.4399 21.756 96.4399 20.586C96.4399 19.416 95.4779 18.558 94.2559 18.558C93.0079 18.558 92.0459 19.416 92.0459 20.586C92.0459 21.756 93.0079 22.666 94.2559 22.666Z" fill="#BD1D1D"/>
<path d="M84.3439 13.02C85.2019 11.85 86.4239 11.252 87.8799 11.252V14.268C85.6179 14.268 84.3439 15.23 84.3439 17.544V24.72H81.4319V11.46H84.3439V13.02Z" fill="#BD1D1D"/>
<path d="M80.4408 6.78V9.692H76.5408V24.72H73.4468V9.692H69.5728V6.78H80.4408Z" fill="#BD1D1D"/>
<path d="M68.7058 14.112H66.0538V20.716C66.0538 21.782 66.6258 22.276 67.5878 22.276C67.9778 22.276 68.3678 22.198 68.7058 22.068V24.772C68.1858 24.954 67.6658 25.032 67.0938 25.032C64.7798 25.032 63.1418 23.654 63.1418 21.002V14.112H61.1918V11.46H63.1418V8.496H66.0538V11.46H68.7058V14.112Z" fill="black"/>
<path d="M55.6529 25.032C54.1969 25.032 52.9229 24.616 51.9869 23.992V21.184C52.8969 21.886 54.3009 22.51 55.4449 22.51C56.4329 22.51 57.1349 22.042 57.1349 21.236C57.1349 19.052 51.8569 19.052 51.8569 14.944C51.8569 12.604 53.5989 11.148 56.1209 11.148C57.2389 11.148 58.4349 11.434 59.2929 11.876V14.502C58.6169 14.06 57.4989 13.67 56.4849 13.67C55.4189 13.67 54.7429 14.086 54.7429 14.788C54.7429 16.66 59.9949 16.686 59.9949 21.132C59.9949 23.628 58.3829 25.032 55.6529 25.032Z" fill="black"/>
<path d="M44.1268 11.148C47.1688 11.148 49.2488 12.994 49.2488 15.802V24.72H46.6488V23.68C45.8428 24.538 44.7248 25.032 43.4508 25.032C40.9548 25.032 38.9528 23.134 38.9528 20.586C38.9528 18.09 40.9548 16.192 43.4508 16.192C44.5688 16.192 45.5828 16.582 46.3368 17.232V16.14C46.3368 14.71 45.2188 13.748 43.5808 13.748C42.3068 13.748 40.8508 14.32 39.8368 15.074V12.448C40.8508 11.72 42.4368 11.148 44.1268 11.148ZM44.1528 22.666C45.3748 22.666 46.3368 21.756 46.3368 20.586C46.3368 19.416 45.3748 18.558 44.1528 18.558C42.9048 18.558 41.9428 19.416 41.9428 20.586C41.9428 21.756 42.9048 22.666 44.1528 22.666Z" fill="black"/>
<path d="M37.738 9.692H31.888V14.424H36.698V17.336H31.888V24.72H28.794V6.78H37.738V9.692Z" fill="black"/>
</g>
<defs>
<clipPath id="clip0_5751_1372">
<rect width="126" height="32" fill="white"/>
</clipPath>
</defs>
</svg>
