<svg width="135" height="32" viewBox="0 0 135 32" fill="none" xmlns="http://www.w3.org/2000/svg">
<g clip-path="url(#clip0_5751_1369)">
<path d="M18.799 6.82612e-06H1.09055C0.801318 6.82612e-06 0.523933 0.115198 0.319415 0.320239C0.114897 0.52528 0 0.803376 0 1.09335V14.0611C2.6581 14.495 5.73933 14.9732 6.76257 14.95C8.60131 14.9057 9.93805 14.0225 10.7112 13.5829C11.4844 13.1432 15.9947 11.6353 16.1948 11.5948C16.9276 11.4598 16.8179 12.719 16.8179 12.719L14.1406 15.8583C14.1406 15.8583 13.3116 17.4183 12.1961 17.8155C10.7055 18.3535 1.96568 17.5494 1.40598 17.4954C0.926865 17.4044 0.456464 17.2721 0 17.1001V21.5583C0.517386 20.1564 1.5387 18.2802 1.74257 18.2976L10.7305 19.2174C10.8055 19.8421 9.91689 22.0867 9.91689 22.0867C6.97798 22.1503 2.38305 23.4133 1.77142 23.3516C1.28866 23.3092 1.25019 23.3304 0 22.7731V23.878C0.619325 24.0979 1.21557 24.3042 1.5387 24.2772C2.22919 24.2097 6.63947 23.1704 7.92043 23.313C9.2014 23.4557 10.7305 23.5657 10.7305 23.5657L9.90728 28.3459C9.90728 28.3459 8.65709 28.9128 8.35704 28.8453C8.05699 28.7778 6.00668 27.1581 4.08524 27.2313C3.02161 27.2718 1.31366 27.1041 0 26.9479V27.7076C1.0867 27.9005 2.30804 28.1492 2.30804 28.1492C2.30804 28.1492 2.58116 30.5249 1.93491 32.0058H4.97576C5.00461 31.892 5.02769 31.7995 5.04115 31.7281C5.14501 31.192 5.23349 29.3062 5.54123 28.8183C5.84897 28.3305 9.0783 29.6571 9.25333 30.3455C9.25333 30.3455 9.4322 31.1381 9.62069 32.0058H18.8029C19.0921 32.0058 19.3695 31.8906 19.574 31.6856C19.7785 31.4805 19.8934 31.2024 19.8934 30.9124V1.09721C19.8939 0.952976 19.866 0.810072 19.8111 0.676724C19.7563 0.543376 19.6757 0.422219 19.574 0.320233C19.4723 0.218247 19.3514 0.137448 19.2184 0.0824894C19.0854 0.0275306 18.9429 -0.000502821 18.799 6.82612e-06ZM9.49568 13.0854C8.97637 13.2666 6.88566 13.7892 5.70279 13.4402C4.51992 13.0912 4.18717 12.2678 4.18717 12.2678C4.18717 12.2678 4.43336 10.515 4.59877 9.98855C4.76418 9.46213 6.15671 7.52999 6.49714 7.07877C6.6664 6.85508 8.61285 7.25231 8.77056 7.48756C8.92828 7.72281 10.5324 9.60868 10.4843 9.87286C10.492 9.87286 10.015 12.9022 9.49568 13.0854ZM14.8292 9.50456C14.6157 6.32866 15.2985 5.56313 10.7401 5.40501C15.2985 5.24689 14.6157 4.47943 14.8292 1.30353C15.0427 4.47943 14.3599 5.24689 18.9183 5.40501C14.3676 5.56313 15.0504 6.32866 14.8369 9.50456H14.8292Z" fill="#BD1E1E"/>
<path d="M135.06 14.332H132.408V20.936C132.408 22.002 132.98 22.496 133.942 22.496C134.332 22.496 134.722 22.418 135.06 22.288V24.992C134.54 25.174 134.02 25.252 133.448 25.252C131.134 25.252 129.496 23.874 129.496 21.222V14.332H127.546V11.68H129.496V8.716H132.408V11.68H135.06V14.332Z" fill="#BD1D1D"/>
<path d="M122.008 25.252C120.552 25.252 119.278 24.836 118.342 24.212V21.404C119.252 22.106 120.656 22.73 121.8 22.73C122.788 22.73 123.49 22.262 123.49 21.456C123.49 19.272 118.212 19.272 118.212 15.164C118.212 12.824 119.954 11.368 122.476 11.368C123.594 11.368 124.79 11.654 125.648 12.096V14.722C124.972 14.28 123.854 13.89 122.84 13.89C121.774 13.89 121.098 14.306 121.098 15.008C121.098 16.88 126.35 16.906 126.35 21.352C126.35 23.848 124.738 25.252 122.008 25.252Z" fill="#BD1D1D"/>
<path d="M116.314 17.842C116.314 18.388 116.236 18.96 116.158 19.428H105.914C106.356 21.352 108.046 22.626 110.724 22.626C112.414 22.626 114.078 22.106 115.508 21.3V24.004C114.156 24.784 112.336 25.252 110.464 25.252C105.602 25.252 102.794 22.262 102.794 18.388C102.794 14.358 105.784 11.368 109.71 11.368C113.662 11.368 116.314 14.332 116.314 17.842ZM109.71 13.994C107.838 13.994 106.356 15.242 105.914 17.14H113.35C113.22 15.502 111.764 13.994 109.71 13.994Z" fill="#BD1D1D"/>
<path d="M98.7663 11.68H101.912L97.7263 24.94H94.4243L90.2643 11.68H93.4623L96.1143 21.586L98.7663 11.68Z" fill="#BD1D1D"/>
<path d="M84.6039 11.368C87.0739 11.368 88.7119 13.032 88.7119 15.554V24.94H85.7999V16.49C85.7999 15.112 84.9159 14.202 83.5639 14.202C82.0559 14.202 81.0939 15.138 81.0939 16.542V24.94H78.1819V11.68H81.0939V13.032C81.9259 11.966 83.1219 11.368 84.6039 11.368Z" fill="#BD1D1D"/>
<path d="M71.4562 24.94V7H74.5502V24.94H71.4562Z" fill="#BD1D1D"/>
<path d="M68.7058 14.332H66.0538V20.936C66.0538 22.002 66.6258 22.496 67.5878 22.496C67.9778 22.496 68.3678 22.418 68.7058 22.288V24.992C68.1858 25.174 67.6658 25.252 67.0938 25.252C64.7798 25.252 63.1418 23.874 63.1418 21.222V14.332H61.1918V11.68H63.1418V8.716H66.0538V11.68H68.7058V14.332Z" fill="black"/>
<path d="M55.6529 25.252C54.1969 25.252 52.9229 24.836 51.9869 24.212V21.404C52.8969 22.106 54.3009 22.73 55.4449 22.73C56.4329 22.73 57.1349 22.262 57.1349 21.456C57.1349 19.272 51.8569 19.272 51.8569 15.164C51.8569 12.824 53.5989 11.368 56.1209 11.368C57.2389 11.368 58.4349 11.654 59.2929 12.096V14.722C58.6169 14.28 57.4989 13.89 56.4849 13.89C55.4189 13.89 54.7429 14.306 54.7429 15.008C54.7429 16.88 59.9949 16.906 59.9949 21.352C59.9949 23.848 58.3829 25.252 55.6529 25.252Z" fill="black"/>
<path d="M44.1268 11.368C47.1688 11.368 49.2488 13.214 49.2488 16.022V24.94H46.6488V23.9C45.8428 24.758 44.7248 25.252 43.4508 25.252C40.9548 25.252 38.9528 23.354 38.9528 20.806C38.9528 18.31 40.9548 16.412 43.4508 16.412C44.5688 16.412 45.5828 16.802 46.3368 17.452V16.36C46.3368 14.93 45.2188 13.968 43.5808 13.968C42.3068 13.968 40.8508 14.54 39.8368 15.294V12.668C40.8508 11.94 42.4368 11.368 44.1268 11.368ZM44.1528 22.886C45.3748 22.886 46.3368 21.976 46.3368 20.806C46.3368 19.636 45.3748 18.778 44.1528 18.778C42.9048 18.778 41.9428 19.636 41.9428 20.806C41.9428 21.976 42.9048 22.886 44.1528 22.886Z" fill="black"/>
<path d="M37.738 9.912H31.888V14.644H36.698V17.556H31.888V24.94H28.794V7H37.738V9.912Z" fill="black"/>
</g>
<defs>
<clipPath id="clip0_5751_1369">
<rect width="135" height="32" fill="white"/>
</clipPath>
</defs>
</svg>
