<svg width="106" height="31" viewBox="0 0 106 31" fill="none" xmlns="http://www.w3.org/2000/svg">
<rect width="105.692" height="30.5" fill="white"/>
<g clip-path="url(#clip0_396_56358)">
<path d="M7.1976 1.48926H0V8.68686H7.1976V1.48926Z" fill="#1D1D1B"/>
<path d="M11.0047 19.1267L6.83365 23.3026H0V30.5002H7.1976V23.8581L11.4644 19.596H18.2023V12.3984H11.0047V19.1267Z" fill="#BD1D1D"/>
<path d="M19.6725 5.07615C16.9524 4.90854 14.7831 2.73921 14.6155 0.0191553L14.5963 0L14.5772 0.0191553C14.4096 2.73921 12.2402 4.90854 9.52017 5.07615L9.50102 5.09531L9.52017 5.11446C10.7653 5.19108 11.8906 5.68912 12.7622 6.46491L6.82407 12.403H0V19.6006H7.1976V12.9585L13.2315 6.92464C14.0073 7.80099 14.5053 8.92636 14.582 10.1667L14.6011 10.1858L14.6203 10.1667C14.7879 7.44662 16.9572 5.27728 19.6773 5.10967L19.6964 5.09052L19.6773 5.07136L19.6725 5.07615Z" fill="#BD1D1D"/>
</g>
<path d="M37.8828 17.0273H33.4883V14.4961H37.8828C38.6016 14.4961 39.1836 14.3789 39.6289 14.1445C40.082 13.9023 40.4141 13.5742 40.625 13.1602C40.8359 12.7383 40.9414 12.2578 40.9414 11.7188C40.9414 11.1953 40.8359 10.707 40.625 10.2539C40.4141 9.80078 40.082 9.43359 39.6289 9.15234C39.1836 8.87109 38.6016 8.73047 37.8828 8.73047H34.543V23.25H31.3203V6.1875H37.8828C39.2109 6.1875 40.3438 6.42578 41.2812 6.90234C42.2266 7.37109 42.9453 8.02344 43.4375 8.85938C43.9375 9.6875 44.1875 10.6328 44.1875 11.6953C44.1875 12.7969 43.9375 13.7461 43.4375 14.543C42.9453 15.3398 42.2266 15.9531 41.2812 16.3828C40.3438 16.8125 39.2109 17.0273 37.8828 17.0273ZM49.7581 13.1602V23.25H46.6644V10.5703H49.5941L49.7581 13.1602ZM53.6136 10.4883L53.5667 13.3711C53.3948 13.3398 53.1995 13.3164 52.9808 13.3008C52.7698 13.2852 52.5706 13.2773 52.3831 13.2773C51.9066 13.2773 51.4886 13.3438 51.1292 13.4766C50.7698 13.6016 50.4691 13.7852 50.2269 14.0273C49.9925 14.2695 49.8128 14.5664 49.6878 14.918C49.5628 15.2617 49.4925 15.6523 49.4769 16.0898L48.8089 16.0078C48.8089 15.2031 48.8909 14.457 49.055 13.7695C49.2191 13.082 49.4573 12.4805 49.7698 11.9648C50.0823 11.4492 50.473 11.0508 50.9417 10.7695C51.4183 10.4805 51.9652 10.3359 52.5823 10.3359C52.7542 10.3359 52.9378 10.3516 53.1331 10.3828C53.3363 10.4062 53.4964 10.4414 53.6136 10.4883ZM54.6139 17.0391V16.793C54.6139 15.8633 54.7467 15.0078 55.0123 14.2266C55.278 13.4375 55.6647 12.7539 56.1725 12.1758C56.6803 11.5977 57.3014 11.1484 58.0358 10.8281C58.7702 10.5 59.6061 10.3359 60.5436 10.3359C61.4967 10.3359 62.3405 10.5 63.0748 10.8281C63.817 11.1484 64.442 11.5977 64.9498 12.1758C65.4577 12.7539 65.8444 13.4375 66.11 14.2266C66.3756 15.0078 66.5084 15.8633 66.5084 16.793V17.0391C66.5084 17.9609 66.3756 18.8164 66.11 19.6055C65.8444 20.3867 65.4577 21.0703 64.9498 21.6562C64.442 22.2344 63.8209 22.6836 63.0866 23.0039C62.3522 23.3242 61.5123 23.4844 60.567 23.4844C59.6295 23.4844 58.7897 23.3242 58.0475 23.0039C57.3053 22.6836 56.6803 22.2344 56.1725 21.6562C55.6647 21.0703 55.278 20.3867 55.0123 19.6055C54.7467 18.8164 54.6139 17.9609 54.6139 17.0391ZM57.7077 16.793V17.0391C57.7077 17.5938 57.7623 18.1133 57.8717 18.5977C57.9811 19.082 58.1491 19.5078 58.3756 19.875C58.6022 20.2422 58.8952 20.5312 59.2545 20.7422C59.6217 20.9453 60.0592 21.0469 60.567 21.0469C61.067 21.0469 61.4967 20.9453 61.8561 20.7422C62.2155 20.5312 62.5084 20.2422 62.735 19.875C62.9694 19.5078 63.1413 19.082 63.2506 18.5977C63.36 18.1133 63.4147 17.5938 63.4147 17.0391V16.793C63.4147 16.2461 63.36 15.7344 63.2506 15.2578C63.1413 14.7734 62.9694 14.3477 62.735 13.9805C62.5084 13.6055 62.2116 13.3125 61.8444 13.1016C61.485 12.8828 61.0514 12.7734 60.5436 12.7734C60.0436 12.7734 59.6139 12.8828 59.2545 13.1016C58.8952 13.3125 58.6022 13.6055 58.3756 13.9805C58.1491 14.3477 57.9811 14.7734 57.8717 15.2578C57.7623 15.7344 57.7077 16.2461 57.7077 16.793Z" fill="#BD1D1D"/>
<path d="M71.1064 10.5703L73.3681 14.6016L75.665 10.5703H79.0283L75.3017 16.7812L79.1806 23.25H75.8173L73.3916 19.0195L70.9541 23.25H67.5908L71.458 16.7812L67.7548 10.5703H71.1064ZM86.4622 23.4844C85.5013 23.4844 84.638 23.3281 83.8723 23.0156C83.1067 22.7031 82.4544 22.2695 81.9153 21.7148C81.3841 21.1523 80.9739 20.5 80.6848 19.7578C80.4036 19.0078 80.263 18.2031 80.263 17.3438V16.875C80.263 15.8984 80.4036 15.0117 80.6848 14.2148C80.9661 13.4102 81.3645 12.7188 81.8802 12.1406C82.3958 11.5625 83.013 11.1172 83.7317 10.8047C84.4505 10.4922 85.2434 10.3359 86.1106 10.3359C87.0091 10.3359 87.802 10.4883 88.4895 10.793C89.177 11.0898 89.7513 11.5117 90.2122 12.0586C90.6731 12.6055 91.0208 13.2617 91.2552 14.0273C91.4895 14.7852 91.6067 15.625 91.6067 16.5469V17.8477H81.6692V15.7148H88.5598V15.4805C88.5442 14.9883 88.4505 14.5391 88.2786 14.1328C88.1067 13.7188 87.8411 13.3906 87.4817 13.1484C87.1223 12.8984 86.6575 12.7734 86.0872 12.7734C85.6263 12.7734 85.2239 12.875 84.8802 13.0781C84.5442 13.2734 84.263 13.5547 84.0364 13.9219C83.8177 14.2812 83.6536 14.7109 83.5442 15.2109C83.4348 15.7109 83.3802 16.2656 83.3802 16.875V17.3438C83.3802 17.875 83.4505 18.3672 83.5911 18.8203C83.7395 19.2734 83.9544 19.668 84.2356 20.0039C84.5247 20.332 84.8684 20.5898 85.2669 20.7773C85.6731 20.957 86.1341 21.0469 86.6497 21.0469C87.2981 21.0469 87.8841 20.9219 88.4075 20.6719C88.9388 20.4141 89.3997 20.0352 89.7903 19.5352L91.3489 21.1523C91.0833 21.543 90.7239 21.918 90.2708 22.2773C89.8255 22.6367 89.2864 22.9297 88.6536 23.1562C88.0208 23.375 87.2903 23.4844 86.4622 23.4844ZM99.5563 23.4844C98.5953 23.4844 97.732 23.3281 96.9664 23.0156C96.2008 22.7031 95.5484 22.2695 95.0094 21.7148C94.4781 21.1523 94.068 20.5 93.7789 19.7578C93.4977 19.0078 93.357 18.2031 93.357 17.3438V16.875C93.357 15.8984 93.4977 15.0117 93.7789 14.2148C94.0602 13.4102 94.4586 12.7188 94.9742 12.1406C95.4898 11.5625 96.107 11.1172 96.8258 10.8047C97.5445 10.4922 98.3375 10.3359 99.2047 10.3359C100.103 10.3359 100.896 10.4883 101.584 10.793C102.271 11.0898 102.845 11.5117 103.306 12.0586C103.767 12.6055 104.115 13.2617 104.349 14.0273C104.584 14.7852 104.701 15.625 104.701 16.5469V17.8477H94.7633V15.7148H101.654V15.4805C101.638 14.9883 101.545 14.5391 101.373 14.1328C101.201 13.7188 100.935 13.3906 100.576 13.1484C100.216 12.8984 99.7516 12.7734 99.1813 12.7734C98.7203 12.7734 98.318 12.875 97.9742 13.0781C97.6383 13.2734 97.357 13.5547 97.1305 13.9219C96.9117 14.2812 96.7477 14.7109 96.6383 15.2109C96.5289 15.7109 96.4742 16.2656 96.4742 16.875V17.3438C96.4742 17.875 96.5445 18.3672 96.6852 18.8203C96.8336 19.2734 97.0484 19.668 97.3297 20.0039C97.6188 20.332 97.9625 20.5898 98.3609 20.7773C98.7672 20.957 99.2281 21.0469 99.7438 21.0469C100.392 21.0469 100.978 20.9219 101.502 20.6719C102.033 20.4141 102.494 20.0352 102.884 19.5352L104.443 21.1523C104.177 21.543 103.818 21.918 103.365 22.2773C102.92 22.6367 102.38 22.9297 101.748 23.1562C101.115 23.375 100.384 23.4844 99.5563 23.4844Z" fill="#242A33"/>
<defs>
<clipPath id="clip0_396_56358">
<rect width="19.6916" height="30.5" fill="white"/>
</clipPath>
</defs>
</svg>
