<?xml version="1.0" encoding="UTF-8"?>
<svg id="Layer_1" data-name="Layer 1" xmlns="http://www.w3.org/2000/svg" viewBox="0 0 864 102.6514">
  <path id="fullLogo" d="m444.12,76.6176c-5.4796-2.5092-9.7733-6.0446-12.884-10.6047-3.1123-4.5601-4.6661-9.6665-4.6661-15.3238,0-5.3713,1.4323-10.233,4.2952-14.5804,2.8629-4.3482,6.8028-7.7231,11.8242-10.1278,5.0183-2.4024,10.7442-3.6056,17.1792-3.6056,6.3617,0,11.9988,1.2032,16.9143,3.6056,4.9124,2.4047,8.7478,5.7446,11.5048,10.0219,2.7585,4.278,4.1362,9.1031,4.1362,14.4745,0,.8486-.0187,1.6801-.053,2.492-.0358.8135-.1948,1.6091-.4769,2.386h-52.493c.6374,2.9697,2.0323,5.6207,4.1892,7.9537,2.1554,2.3331,4.9653,4.1191,8.4314,5.355,3.463,1.2382,7.2454,1.8562,11.3458,1.8562,4.9482,0,9.5972-.8486,13.9454-2.545,4.3482-1.6972,7.6163-3.9243,9.8091-6.6812l7.1051,6.0446c-1.9091,2.6876-4.4729,4.984-7.688,6.8932-3.2183,1.9084-6.9119,3.4115-11.0824,4.5064-4.1721,1.0956-8.4829,1.6442-12.937,1.6442-6.7872,0-12.9214-1.2561-18.3995-3.7645Zm35.7907-29.8521c-.2836-3.11-1.3434-5.761-3.1809-7.953-1.839-2.1905-4.2422-3.8876-7.2111-5.09-2.9689-1.2016-6.2215-1.8032-9.7561-1.8032s-6.8059.6366-9.8091,1.9091c-3.0063,1.2725-5.408,3.0406-7.2111,5.302-1.8032,2.2637-2.9159,4.8087-3.3414,7.635h40.5098Z" style="fill: #00b0ff;"/>
  <path id="fullLogo-2" data-name="fullLogo" d="m551.8068,25.133c3.6749,1.9084,6.5394,4.6653,8.5904,8.2709,2.0494,3.6056,3.0749,7.8844,3.0749,12.8318v32.0254h-12.0892v-30.4349c0-4.9474-1.5024-8.8179-4.5071-11.6115-3.0048-2.792-7.088-4.1892-12.2482-4.1892-4.1721,0-7.847.7792-11.0279,2.3331-3.1809,1.5562-5.6386,3.8012-7.3701,6.7342-1.733,2.9339-2.598,6.3095-2.598,10.1271v27.0413h-11.8772V24.3903h10.392l1.4852,9.8621h.106c2.545-3.8175,5.9207-6.7685,10.1271-8.8545,4.2048-2.0845,9.0673-3.1287,14.5812-3.1287,5.2303,0,9.6844.9546,13.3609,2.8637Z" style="fill: #00b0ff;"/>
  <path id="fullLogo-3" data-name="fullLogo" d="m588.0198,76.6176c-5.4796-2.5092-9.7733-6.0446-12.884-10.6047-3.1123-4.5601-4.6661-9.6665-4.6661-15.3238,0-5.3713,1.4323-10.233,4.2952-14.5804,2.8629-4.3482,6.8028-7.7231,11.8242-10.1278,5.0183-2.4024,10.7442-3.6056,17.1792-3.6056,6.3617,0,11.9988,1.2032,16.9143,3.6056,4.9124,2.4047,8.7478,5.7446,11.5048,10.0219,2.7585,4.278,4.1362,9.1031,4.1362,14.4745,0,.8486-.0187,1.6801-.053,2.492-.0358.8135-.1948,1.6091-.4769,2.386h-52.493c.6374,2.9697,2.0323,5.6207,4.1892,7.9537,2.1554,2.3331,4.9653,4.1191,8.4314,5.355,3.463,1.2382,7.2454,1.8562,11.3458,1.8562,4.9482,0,9.5972-.8486,13.9454-2.545,4.3482-1.6972,7.6163-3.9243,9.8091-6.6812l7.1051,6.0446c-1.9091,2.6876-4.4729,4.984-7.688,6.8932-3.2183,1.9084-6.9119,3.4115-11.0824,4.5064-4.1721,1.0956-8.4829,1.6442-12.937,1.6442-6.7872,0-12.9214-1.2561-18.3995-3.7645Zm35.7907-29.8521c-.2836-3.11-1.3434-5.761-3.1809-7.953-1.839-2.1905-4.2422-3.8876-7.2111-5.09-2.9689-1.2016-6.2215-1.8032-9.7561-1.8032s-6.8059.6366-9.8091,1.9091c-3.0063,1.2725-5.408,3.0406-7.2111,5.302-1.8032,2.2637-2.9159,4.8087-3.3414,7.635h40.5098Z" style="fill: #00b0ff;"/>
  <path id="fullLogo-4" data-name="fullLogo" d="m685.1573,24.6023c2.7211,1.4845,4.9124,3.6056,6.5753,6.3625,1.6598,2.7577,2.704,6.0812,3.1279,9.9689l-10.498,2.9689c-.3553-3.7466-1.5569-6.6446-3.6063-8.6956-2.051-2.0494-4.596-3.0757-7.635-3.0757-3.3243,0-6.1685.8322-8.5358,2.492-2.3705,1.6621-4.1362,4.0832-5.3035,7.2641-1.1657,3.1817-1.7486,6.8932-1.7486,11.1346v25.2389h-11.8772V24.3903h10.0741l1.4852,9.6502h.106c1.7658-3.6056,4.2406-6.4506,7.4231-8.5366,3.1809-2.0845,6.8215-3.1287,10.9219-3.1287,3.6063,0,6.7685.7426,9.4912,2.2271Z" style="fill: #00b0ff;"/>
  <path id="fullLogo-5" data-name="fullLogo" d="m709.0692,99.6817c-6.0095-1.9801-10.7458-4.737-14.2087-8.2709l6.4677-8.4836c3.0391,2.898,6.9805,5.2311,11.8242,6.9992,4.8422,1.7658,9.8434,2.651,15.0051,2.651s9.6673-.8486,13.5214-2.545c3.8526-1.6972,6.8215-3.9773,8.9068-6.8402s3.1294-6.2729,3.1294-10.233v-4.3482h-.106c-1.345,2.0517-3.2526,3.8705-5.7274,5.4617-2.4749,1.5904-5.2677,2.8466-8.3769,3.7645-3.1123.9179-6.3992,1.3785-9.8621,1.3785-6.0812,0-11.4533-1.1665-16.1194-3.4996s-8.2709-5.6371-10.8159-9.9151c-2.545-4.2765-3.8183-9.1733-3.8183-14.6872,0-5.796,1.2546-10.833,3.7653-15.1111,2.5076-4.2773,6.1139-7.5828,10.8159-9.9159,4.7004-2.3323,10.0912-3.4988,16.1724-3.4988,5.09,0,9.8434,1.0785,14.2633,3.2339,4.4168,2.1577,7.688,4.9677,9.8091,8.4306h.106l1.5897-9.8621h10.2876l-.1075,48.4627c0,6.008-1.4837,11.2406-4.4526,15.694-2.9705,4.4542-7.2641,7.9171-12.8856,10.3928-5.6199,2.4741-12.2123,3.7115-19.7772,3.7115-6.929,0-13.3983-.9912-19.4063-2.9697Zm34.7309-32.6082c3.2152-1.5904,5.743-3.7809,7.582-6.5745,1.8375-2.792,2.757-5.9207,2.757-9.3852,0-3.5347-.8852-6.7342-2.651-9.5972-1.7689-2.8629-4.3139-5.1251-7.635-6.7872-3.3243-1.6598-7.1051-2.492-11.3474-2.492-4.384,0-8.2023.8135-11.4533,2.439-3.2526,1.6271-5.7617,3.8713-7.5291,6.7342s-2.651,6.0976-2.651,9.7031c0,3.5354.9024,6.7171,2.704,9.5442,1.8032,2.8279,4.3653,5.002,7.688,6.5215,3.3227,1.5211,7.0693,2.2801,11.2414,2.2801,4.3108,0,8.0761-.7956,11.2944-2.386Z" style="fill: #00b0ff;"/>
  <path id="fullLogo-6" data-name="fullLogo" d="m776.1418,12.9908c-1.4494-1.4486-2.1725-3.304-2.1725-5.5677,0-1.3419.3335-2.598,1.0068-3.7645.6717-1.1665,1.5912-2.0681,2.757-2.704,1.1673-.6366,2.5263-.9546,4.0832-.9546,2.4016,0,4.3108.7076,5.7259,2.1211,1.4135,1.4151,2.1211,3.1809,2.1211,5.302,0,1.4845-.3179,2.8287-.9538,4.0295-.6374,1.2032-1.5569,2.1211-2.7585,2.7577-1.2016.6359-2.5809.9538-4.1347.9538-2.3331,0-4.2251-.7239-5.6745-2.1733Zm-.3709,11.3996h11.9832v53.8707h-11.9832V24.3903Z" style="fill: #00b0ff;"/>
  <path id="fullLogo-7" data-name="fullLogo" d="m813.8931,76.6176c-5.4796-2.5092-9.7733-6.0446-12.884-10.6047-3.1123-4.5601-4.6661-9.6665-4.6661-15.3238,0-5.3713,1.4323-10.233,4.2952-14.5804,2.8629-4.3482,6.8028-7.7231,11.8242-10.1278,5.0183-2.4024,10.7442-3.6056,17.1792-3.6056,6.3617,0,11.9988,1.2032,16.9143,3.6056,4.9124,2.4047,8.7478,5.7446,11.5048,10.0219,2.7585,4.278,4.1362,9.1031,4.1362,14.4745,0,.8486-.0187,1.6801-.053,2.492-.0358.8135-.1948,1.6091-.4769,2.386h-52.493c.6374,2.9697,2.0323,5.6207,4.1892,7.9537,2.1554,2.3331,4.9653,4.1191,8.4314,5.355,3.463,1.2382,7.2454,1.8562,11.3458,1.8562,4.9482,0,9.5972-.8486,13.9454-2.545,4.3482-1.6972,7.6163-3.9243,9.8091-6.6812l7.1051,6.0446c-1.9091,2.6876-4.4729,4.984-7.688,6.8932-3.2183,1.9084-6.9119,3.4115-11.0824,4.5064-4.1721,1.0956-8.4829,1.6442-12.937,1.6442-6.7872,0-12.9214-1.2561-18.3995-3.7645Zm35.7907-29.8521c-.2836-3.11-1.3434-5.761-3.1809-7.953-1.839-2.1905-4.2422-3.8876-7.2111-5.09-2.9689-1.2016-6.2215-1.8032-9.7561-1.8032s-6.8059.6366-9.8091,1.9091c-3.0063,1.2725-5.408,3.0406-7.2111,5.302-1.8032,2.2637-2.9159,4.8087-3.3414,7.635h40.5098Z" style="fill: #00b0ff;"/>
  <path id="fullLogo-8" data-name="fullLogo" d="m16.6493,76.7766c-5.302-2.4024-9.4039-5.796-12.3011-10.1808-2.9003-4.3825-4.3482-9.4374-4.3482-15.1641,0-5.8669,1.4478-10.9757,4.3482-15.3231,2.8972-4.3482,6.9992-7.7231,12.3011-10.1278,5.302-2.4024,11.3099-3.6056,18.027-3.6056,6.9992,0,13.1505,1.2032,18.4525,3.6056,5.302,2.4047,9.3852,5.7797,12.2482,10.1278,2.8629,4.3474,4.2952,9.4561,4.2952,15.3231,0,5.7267-1.4323,10.7816-4.2952,15.1641-2.8629,4.3848-6.9462,7.7784-12.2482,10.1808s-11.4533,3.6056-18.4525,3.6056c-6.7171,0-12.7251-1.2032-18.027-3.6056Zm30.2752-8.6426c3.4287-1.5912,6.061-3.8347,7.9015-6.7342,1.8375-2.898,2.757-6.2199,2.757-9.9681,0-3.8869-.9195-7.2805-2.757-10.18-1.8406-2.898-4.4729-5.1251-7.9015-6.6812-3.4287-1.5538-7.5119-2.3331-12.2482-2.3331-4.596,0-8.5888.7792-11.9832,2.3331-3.3928,1.5562-6.0267,3.7832-7.9,6.6812-1.8733,2.8996-2.81,6.2932-2.81,10.18,0,3.7482.9367,7.0701,2.81,9.9681,1.8733,2.8996,4.5071,5.143,7.9,6.7342,3.3944,1.5904,7.3872,2.386,11.9832,2.386,4.7362,0,8.8195-.7956,12.2482-2.386Z" style="fill: #00b0ff;"/>
  <path id="fullLogo-9" data-name="fullLogo" d="m92.5757,78.1551c-4.6661-1.4135-8.5732-3.463-11.7183-6.1506-3.1466-2.6861-5.143-5.761-5.9908-9.2262l9.2262-3.8175c.6359,2.3331,2.0837,4.4012,4.3466,6.2036,2.2629,1.8032,5.0729,3.2183,8.4314,4.2422,3.357,1.0255,6.9462,1.5374,10.7629,1.5374,3.3227,0,6.2745-.3179,8.8553-.9546,2.5793-.6359,4.6287-1.5538,6.1498-2.757,1.5195-1.2016,2.2801-2.545,2.2801-4.0295-.0701-1.9091-1.2561-3.4466-3.5518-4.6131-2.2988-1.1665-5.7103-2.0315-10.233-2.598l-12.1952-1.3785c-6.7171-1.0606-11.737-2.7211-15.0581-4.984-3.3243-2.2621-4.984-5.6207-4.984-10.0748,0-3.463,1.0598-6.5036,3.1809-9.1195,2.1211-2.6144,5.143-4.5944,9.0673-5.9386,3.9227-1.3419,8.4641-2.0151,13.6259-2.0151,4.0988,0,7.9888.5486,11.6653,1.6442,3.6749,1.0964,6.8558,2.6689,9.5442,4.7191,2.6853,2.051,4.5944,4.384,5.7259,6.9984l-8.6948,4.4542c-1.133-2.6144-3.4474-4.7721-6.9462-6.4685-3.5004-1.6972-7.4075-2.545-11.7183-2.545-2.757,0-5.2147.3016-7.3701.9008-2.1569.6016-3.8884,1.4502-5.196,2.545-1.3091,1.0972-1.9621,2.3167-1.9621,3.6586-.0717,1.8398.8307,3.2183,2.704,4.1362,1.8733.9195,4.8952,1.7681,9.0673,2.545l12.6191,1.3785c7.2111,1.0606,12.6362,2.757,16.2784,5.09,3.6391,2.3331,5.4609,5.9036,5.4609,10.7107,0,3.6765-1.1845,6.876-3.5534,9.5972-2.3689,2.7219-5.7087,4.8079-10.0211,6.2565-4.3123,1.4478-9.1904,2.1741-14.6342,2.1741s-10.498-.7076-15.1641-2.1211Z" style="fill: #00b0ff;"/>
  <path id="fullLogo-10" data-name="fullLogo" d="m142.8401,24.3903h10.18l1.3793,9.1195h.106c2.0494-3.3928,5.1056-6.0976,9.1717-8.1119,4.0645-2.0151,8.5374-3.0227,13.4155-3.0227,5.3721,0,9.8434,1.0793,13.4139,3.2346,3.5689,2.1577,6.2043,5.1087,7.9015,8.8545h.106c2.6136-3.9586,6.0781-6.9625,10.392-9.0135,4.3108-2.0494,8.9769-3.0757,13.9983-3.0757,4.6646,0,8.7291.8852,12.1952,2.6518,3.463,1.7673,6.0968,4.2944,7.9,7.582,1.8032,3.2869,2.704,7.0514,2.704,11.2936l.106,34.3584h-11.9832l-.106-32.3433c0-4.1705-1.3091-7.4581-3.9243-9.8621-2.6151-2.4032-6.2215-3.6056-10.8159-3.6056-3.8884,0-7.247.7418-10.0741,2.2263-2.8287,1.4852-4.9685,3.6586-6.4163,6.5223-1.4494,2.8629-2.1741,6.2036-2.1741,10.0211l-.106,27.0413h-11.8772v-32.3433c0-4.1705-1.2904-7.4581-3.8697-9.8621-2.5824-2.4032-6.2745-3.6056-11.0824-3.6056-5.8677,0-10.445,1.7143-13.7318,5.143-3.2884,3.4295-4.9311,7.9717-4.9311,13.6266v27.0413h-11.8772V24.3903Z" style="fill: #00b0ff;"/>
  <path id="fullLogo-11" data-name="fullLogo" d="m269.4563,76.7766c-5.302-2.4024-9.4039-5.796-12.3011-10.1808-2.9003-4.3825-4.3482-9.4374-4.3482-15.1641,0-5.8669,1.4478-10.9757,4.3482-15.3231,2.8972-4.3482,6.9992-7.7231,12.3011-10.1278,5.302-2.4024,11.3099-3.6056,18.027-3.6056,6.9992,0,13.1505,1.2032,18.4525,3.6056,5.302,2.4047,9.3852,5.7797,12.2482,10.1278,2.8629,4.3474,4.2952,9.4561,4.2952,15.3231,0,5.7267-1.4323,10.7816-4.2952,15.1641-2.8629,4.3848-6.9462,7.7784-12.2482,10.1808s-11.4533,3.6056-18.4525,3.6056c-6.7171,0-12.7251-1.2032-18.027-3.6056Zm30.2752-8.6426c3.4287-1.5912,6.061-3.8347,7.9015-6.7342,1.8375-2.898,2.757-6.2199,2.757-9.9681,0-3.8869-.9195-7.2805-2.757-10.18-1.8406-2.898-4.4729-5.1251-7.9015-6.6812-3.4287-1.5538-7.5119-2.3331-12.2482-2.3331-4.596,0-8.5888.7792-11.9832,2.3331-3.3928,1.5562-6.0267,3.7832-7.9,6.6812-1.8733,2.8996-2.81,6.2932-2.81,10.18,0,3.7482.9367,7.0701,2.81,9.9681,1.8733,2.8996,4.5071,5.143,7.9,6.7342,3.3944,1.5904,7.3872,2.386,11.9832,2.386,4.7362,0,8.8195-.7956,12.2482-2.386Z" style="fill: #00b0ff;"/>
  <path id="fullLogo-12" data-name="fullLogo" d="m405.3432,47.4092l-.7356-.0218c-5.563-.1621-10.5346-1.2468-14.7768-3.2245-4.4456-2.0759-7.8992-5.0214-10.265-8.7571-2.2419-3.5409-3.41-7.6662-3.4715-12.2622l-.0109-.7761h-9.7748l-.0109.7761c-.0616,4.596-1.2296,8.7213-3.4715,12.2622-2.3658,3.7357-5.8194,6.6812-10.265,8.7571-4.2422,1.9777-9.2138,3.0624-14.7768,3.2245l-.7356.0218v3.6776l.0039.2918-.0039.2918v3.6776l.7356.0218c5.563.1621,10.5346,1.2468,14.7768,3.2245,4.4456,2.0759,7.8992,5.0214,10.265,8.7571,2.2419,3.5409,3.41,7.6662,3.4715,12.2622l.0109.7761h9.7748l.0109-.7761c.0616-4.596,1.2296-8.7213,3.4715-12.2622,2.3658-3.7357,5.8194-6.6812,10.265-8.7571,4.2422-1.9777,9.2138-3.0624,14.7768-3.2245l.7356-.0218v-3.6776l-.0039-.2918.0039-.2918v-3.6776Zm-34.0428,15.747l-.1044.1683-.1044-.1683c-3.1544-5.0043-7.6436-8.966-13.3414-11.7775,5.6978-2.8115,10.1871-6.7732,13.3414-11.7775l.1044-.1683.1044.1683c3.1544,5.0043,7.6436,8.966,13.3414,11.7775-5.6978,2.8115-10.1871,6.7732-13.3414,11.7775Z" style="fill: #00b0ff;"/>
</svg>