<?xml version="1.0" encoding="utf-8"?>
<!-- Generator: Adobe Illustrator 22.1.0, SVG Export Plug-In . SVG Version: 6.00 Build 0)  -->
<svg version="1.1" id="Calque_1" xmlns="http://www.w3.org/2000/svg" xmlns:xlink="http://www.w3.org/1999/xlink" x="0px" y="0px"
	 viewBox="0 0 106 40" style="enable-background:new 0 0 106 40;" xml:space="preserve">
<style type="text/css">
	.st0{enable-background:new    ;}
	.st1{fill:#007297;}
</style>
<title>Group 2</title>
<desc>Created with Sketch.</desc>
<g id="_x2022_-D-_x2F_-Molecules-_x2F_-Header-_x2F_-01-B_1_">
	<g id="Logo_1_">
		<g id="Group-2_1_" transform="translate(65.000000, 18.000000)">
			<g class="st0">
				<path class="st1" d="M-64.9-17.9h12.3c2.3,0,4.4,0.3,6.3,0.8c1.9,0.5,3.5,1.3,4.9,2.3s2.4,2.4,3.2,4s1.1,3.5,1.1,5.6
					c0,2.3-0.4,4.3-1.2,6s-1.9,3.1-3.3,4.2s-3.1,1.9-5,2.5c-2,0.5-4.1,0.8-6.5,0.8h-3.8V21h-8V-17.9z M-56.9-11.3V1.9h3.5
					c2.6,0,4.6-0.6,6-1.7s2.2-2.8,2.2-5.1c0-2.2-0.7-3.8-2.1-4.9c-1.4-1-3.4-1.6-5.9-1.6L-56.9-11.3L-56.9-11.3z"/>
				<path class="st1" d="M-28.5,8.3c0.3,2.2,1.1,4,2.3,5.2c1.3,1.3,2.9,1.9,4.8,1.9c1.5,0,2.8-0.4,4-1.2c1.1-0.8,2-2,2.5-3.4
					l6.2,2.2c-0.4,1.3-1,2.4-1.8,3.5s-1.7,2.1-2.8,2.9s-2.4,1.4-3.8,1.9c-1.4,0.4-2.9,0.7-4.5,0.7c-2.2,0-4.3-0.4-6.1-1.1
					c-1.8-0.8-3.4-1.8-4.6-3.2c-1.3-1.4-2.2-3-2.9-4.9s-1-4-1-6.3c0-2.2,0.3-4.2,1-6c0.7-1.9,1.7-3.5,2.9-4.8
					c1.3-1.3,2.8-2.4,4.5-3.2c1.8-0.8,3.7-1.2,5.9-1.2c2.3,0,4.3,0.4,6,1.2s3.2,1.9,4.3,3.2s2,2.9,2.6,4.6C-8.4,2-8.1,3.9-8.1,5.8
					c0,0.4,0,0.9-0.1,1.3c0,0.4-0.1,0.8-0.2,1.2C-8.4,8.3-28.5,8.3-28.5,8.3z M-21.9-2.5c-1.7,0-3.2,0.6-4.3,1.7s-1.9,2.6-2.2,4.5
					h12.7c0-0.9-0.2-1.7-0.5-2.4s-0.8-1.4-1.3-2s-1.2-1-1.9-1.3C-20.2-2.3-21-2.5-21.9-2.5z"/>
				<path class="st1" d="M-4.7-8.2h7.6v4.5h0.2c0.9-1.7,2.2-3,3.6-3.9c1.5-0.9,3.4-1.3,5.6-1.3v7.3c-3.2,0-5.5,0.7-7,2.2
					C3.8,2,3,4.5,3,7.9V21h-7.7V-8.2z"/>
				<path class="st1" d="M16-17.9h7.7V21H16V-17.9z"/>
			</g>
			<g id="Oval_1_">
				<circle class="st1" cx="35.5" cy="16.5" r="5.5"/>
			</g>
		</g>
	</g>
</g>
</svg>
