<svg xmlns="http://www.w3.org/2000/svg" width="1104.39" height="200" viewBox="0 0 1104.39 200">
  <defs>
    <style>
      .cls-1 {
        fill: #bd1d1d;
      }

      .cls-2 {
        fill: #f39200;
      }
    </style>
  </defs>
  <g id="Calque_2" data-name="Calque 2">
    <g id="Calque_1-2" data-name="Calque 1">
      <g>
        <g>
          <polygon class="cls-1" points="226.03 91.46 189.02 166.53 152 91.46 144.85 91.46 134.98 168.56 132.51 168.56 132.51 177.85 143.03 177.85 151.74 111.53 185.1 179.44 192.93 179.44 226.29 111.54 235.03 178.78 244.28 177.24 233.18 91.46 226.03 91.46"/>
          <polygon class="cls-1" points="295.63 137.63 267.51 93.05 258 93.05 258 102.17 262.36 102.17 290.99 147.69 290.99 177.85 300.28 177.85 300.28 147.69 333.46 95.13 325.52 90.01 295.63 137.63"/>
          <path d="M390.58,93.05H352.94v9.12h3v75.68h9.29V152.62h26.23c16.86,0,30.57-13.4,30.57-29.87C422,106.1,408.22,93.05,390.58,93.05Zm-25.35,9.12H390.4c12.32,0,22.34,9.23,22.34,20.58s-10,20.58-22.34,20.58H365.23Z"/>
          <path d="M450,115.37V93.05H437.74v9.12h3v75.68H450v-33c0-23.38,16.35-39.93,28.63-43.47v2.42h9.12V91.46h-4.47C472.85,91.46,458.76,99.65,450,115.37Z"/>
          <path d="M539.94,91.46c-23.38,0-42.4,19.74-42.4,44s19,44,42.4,44,42.4-19.73,42.4-44S563.32,91.46,539.94,91.46Zm0,78.68c-18.35,0-33.28-15.56-33.28-34.69s14.93-34.87,33.28-34.87,33.11,15.64,33.11,34.87S558.19,170.14,539.94,170.14Z"/>
          <path d="M628.62,93.05H598v9.12h3v75.68h27.58c24.64,0,44.69-19,44.69-42.4S653.26,93.05,628.62,93.05Zm.35,75.5H610.33V102.17H629c19.42,0,35.22,14.93,35.22,33.28S648.39,168.55,629,168.55Z"/>
          <polygon points="877.98 91.46 840.97 166.53 803.95 91.46 796.8 91.46 786.92 168.56 784.46 168.56 784.46 177.85 794.98 177.85 803.68 111.53 837.05 179.44 844.88 179.44 878.24 111.54 886.98 178.78 896.23 177.24 885.12 91.46 877.98 91.46"/>
          <path d="M1022.73,121.34c0-18.71-13.21-29.88-35.34-29.88-11.18,0-22.64,2.86-29.89,7.47l-.69.43v9.16h9.29v-3.7a55.52,55.52,0,0,1,21.29-4.24c9.79,0,26.23,2.7,26.23,20.76v3.11H980.33c-24.76,0-36,14.3-36,27.58,0,15.11,16.17,27.4,36,27.4,12.46,0,25.13-4.81,33.29-12.48v10.9h12.29v-9.3h-3.18Zm-42.4,48.8c-14.85,0-26.93-8.12-26.93-18.11,0-9.1,8.33-18.29,26.93-18.29h33.29v21.11C1008.48,164.43,992.74,170.14,980.33,170.14Z"/>
          <polygon points="1095.1 165.38 1095.1 168.56 1053.94 168.56 1053.94 93.05 1044.65 93.05 1044.65 177.85 1104.39 177.85 1104.39 165.38 1095.1 165.38"/>
          <path d="M760.75,119.36c1.52-1.38,2.89-2.61,4.11-3.64l3.11-2.86-2.56-3.33a43.82,43.82,0,0,0-22.75-16.14,106.72,106.72,0,0,0,12.75-9.61l-.21,0-8.35-3.63c-6,5-14.21,10.59-19.26,11.2-.37,0-.89.21-1.64.37a44,44,0,1,0,36.17,73.71l1-1.08-6.74-6.22-1,1.06a34.84,34.84,0,0,1-59.92-19h28.18C737.71,140.1,751.57,127.61,760.75,119.36ZM730,100.58a34.69,34.69,0,0,1,25.27,11.12l-.92.83c-8.51,7.71-20.17,18.27-30.7,18.27H695.47A35.06,35.06,0,0,1,730,100.58Z"/>
          <polygon points="914.71 102.17 917.71 102.17 917.71 177.85 927 177.85 927 93.05 914.71 93.05 914.71 102.17"/>
        </g>
        <g>
          <g>
            <path class="cls-1" d="M134,43.17c-1.24.25-29,9.54-33.74,12.2s-13,8.12-24.29,8.38-63.49-9.39-68-9.64c0,0,1.46,12.62,2.67,13.54S37.74,78.88,43,79.37c3.45.34,57.22,5.27,66.39,2,6.85-2.45,12-12,12-12l16.47-19.27S138.48,42.34,134,43.17Z"/>
            <path class="cls-1" d="M98.9,32.58S96,51.17,92.81,52.29s-16,4.33-23.34,2.18-9.32-7.2-9.32-7.2,1.52-10.75,2.54-14,9.58-15.09,11.67-17.86c1-1.37,13,1.06,14,2.51S99.19,30.93,98.9,32.58Z"/>
            <path class="cls-1" d="M22.67,115.77c4.15-1,16.82,5.62,21.09,5.24s31.37-6.79,39.26-6,17.28,1.55,17.28,1.55l-5,29.29s-7.7,3.48-9.54,3.07-14.46-10.35-26.28-9.9-36.57-3.26-36.57-3.26S18.48,116.8,22.67,115.77Z"/>
            <path class="cls-1" d="M32.51,111c9.51,4.22,9.54,4,12.74,4.33,3.76.38,32-7.37,50.11-7.76,0,0,5.46-13.78,5-17.61,0,0-53.61-5.48-55.28-5.64S33.2,103.91,32.51,111Z"/>
            <path class="cls-1" d="M91.25,158.2s4.19,18.59,4.86,22.8.44,18.84.44,18.84a101.88,101.88,0,0,1-11.84,0c-6.13-.35-10.83,0-12.26-.22a34.78,34.78,0,0,1-13.42-5c-2-1.37,5.38-23.15,6.31-27.91.63-3.29,1.21-14.86,3.08-17.86S90.17,154,91.25,158.2Z"/>
            <path class="cls-1" d="M48.52,144.69S30,141,25.17,140.43s-27,39.52-25,40.28c17,6.38,26.25,8.74,32.63,10.89,3.2,1.06,8.25-13.51,12.77-21.77C50.39,160.91,48.52,144.69,48.52,144.69Z"/>
          </g>
          <polygon class="cls-2" points="152.78 0 154.37 11.05 165.28 13.39 155.26 18.32 156.4 29.43 148.62 21.43 138.43 25.95 143.61 16.06 136.18 7.76 147.16 9.64 152.78 0"/>
        </g>
      </g>
    </g>
  </g>
</svg>
