<svg width="80" height="48" viewBox="0 0 80 48" fill="none" xmlns="http://www.w3.org/2000/svg">
<g clip-path="url(#clip0_7509_1046)">
<path d="M39.9999 1.53143C32.0114 1.53143 25.5314 8.01143 25.5314 16C25.5314 23.9886 32.0114 30.4686 39.9999 30.4686C47.9885 30.4686 54.4685 23.9886 54.4685 16C54.4685 8.01143 47.9885 1.53143 39.9999 1.53143ZM39.9999 30.4229L25.5771 16L39.9999 1.57715L54.4228 16L39.9999 30.4229Z" fill="#F7E4E4"/>
<path d="M24 12.4686L36.4686 0C30.2514 1.36571 25.3657 6.25143 24 12.4686Z" fill="#F7E4E4"/>
<path d="M36.4686 32L24 19.5314C25.3657 25.7429 30.2514 30.6343 36.4686 32Z" fill="#F7E4E4"/>
<path d="M43.5314 0L55.9999 12.4686C54.6342 6.25143 49.7485 1.36571 43.5314 0Z" fill="#F7E4E4"/>
<path d="M55.9999 19.5314L43.5314 32C49.7428 30.6343 54.6342 25.7486 55.9999 19.5314Z" fill="#F7E4E4"/>
<path d="M39.9999 4.10857C33.4342 4.10857 28.1085 9.43428 28.1085 16C28.1085 22.5657 33.4342 27.8914 39.9999 27.8914C46.5657 27.8914 51.8914 22.5657 51.8914 16C51.8914 9.43428 46.5657 4.10857 39.9999 4.10857ZM39.9999 25.3086C39.0228 17.7714 38.2285 16.9829 30.6914 16C38.2285 15.0229 39.0171 14.2286 39.9999 6.69142C40.9771 14.2286 41.7714 15.0171 49.3085 16C41.7714 16.9771 40.9828 17.7714 39.9999 25.3086Z" fill="#F7E4E4"/>
</g>
<path d="M18.6691 39.78C20.0891 39.78 21.1491 40.93 21.1491 42.45C21.1491 43.97 20.0891 45.12 18.6691 45.12C17.9791 45.12 17.4091 44.82 17.0091 44.33V46.9H15.7091V39.9H17.0091V40.57C17.4091 40.08 17.9791 39.78 18.6691 39.78ZM18.4091 43.86C19.2191 43.86 19.8091 43.25 19.8091 42.45C19.8091 41.65 19.2191 41.04 18.4091 41.04C17.6091 41.04 17.0091 41.65 17.0091 42.45C17.0091 43.25 17.6091 43.86 18.4091 43.86ZM23.4805 40.68C23.8805 40.14 24.4305 39.82 25.1005 39.82V41.16C24.0605 41.16 23.4805 41.71 23.4805 42.57V45H22.1805V39.9H23.4805V40.68ZM28.2207 45.12C26.6607 45.12 25.4807 43.97 25.4807 42.45C25.4807 40.93 26.6607 39.78 28.2207 39.78C29.7807 39.78 30.9607 40.93 30.9607 42.45C30.9607 43.97 29.7807 45.12 28.2207 45.12ZM28.2207 43.86C29.0307 43.86 29.6207 43.25 29.6207 42.45C29.6207 41.65 29.0307 41.04 28.2207 41.04C27.4207 41.04 26.8207 41.65 26.8207 42.45C26.8207 43.25 27.4207 43.86 28.2207 43.86ZM36.3481 43.74H36.6681V45H36.1981C35.3581 45 34.7681 44.67 34.2581 43.85L33.8481 43.28L32.6981 45H31.1281L32.9581 42.44L31.1581 39.9H32.7381L33.8581 41.54L34.9681 39.9H36.5281L34.7281 42.43L35.3481 43.22C35.6081 43.57 35.9381 43.74 36.3481 43.74ZM42.5072 42.46C42.5072 42.59 42.4972 42.78 42.4672 42.9H38.4172C38.5872 43.55 39.1072 43.97 39.8072 43.97C40.3372 43.97 40.7972 43.74 41.0172 43.41H42.4272C42.0372 44.43 41.0272 45.12 39.7872 45.12C38.2072 45.12 37.0272 43.97 37.0272 42.45C37.0272 40.93 38.2072 39.78 39.7672 39.78C41.3272 39.78 42.5072 40.93 42.5072 42.46ZM39.7672 40.92C39.1172 40.92 38.6072 41.33 38.4372 41.95H41.1072C40.9372 41.33 40.4072 40.92 39.7672 40.92ZM48.6662 42.46C48.6662 42.59 48.6562 42.78 48.6262 42.9H44.5762C44.7462 43.55 45.2662 43.97 45.9662 43.97C46.4962 43.97 46.9562 43.74 47.1762 43.41H48.5862C48.1962 44.43 47.1862 45.12 45.9462 45.12C44.3662 45.12 43.1862 43.97 43.1862 42.45C43.1862 40.93 44.3662 39.78 45.9262 39.78C47.4862 39.78 48.6662 40.93 48.6662 42.46ZM45.9262 40.92C45.2762 40.92 44.7662 41.33 44.5962 41.95H47.2662C47.0962 41.33 46.5662 40.92 45.9262 40.92ZM58.1352 43.74H58.2452V45H57.8752C56.9052 45 56.4052 44.52 56.4052 43.59V42.07C56.4052 41.45 56.0152 41.04 55.4052 41.04C54.7652 41.04 54.3352 41.46 54.3352 42.09V45H53.0352V42.07C53.0352 41.45 52.6352 41.04 52.0352 41.04C51.3952 41.04 50.9552 41.46 50.9552 42.09V45H49.6552V39.9H50.9552V40.49C51.3252 40.02 51.8452 39.78 52.4652 39.78C53.2252 39.78 53.8052 40.12 54.1052 40.7C54.4952 40.1 55.0852 39.78 55.8352 39.78C56.9552 39.78 57.7052 40.53 57.7052 41.68V43.31C57.7052 43.58 57.8652 43.74 58.1352 43.74ZM64.6463 43.74H64.7463V45H64.3763C63.6563 45 63.1963 44.73 63.0063 44.2C62.6063 44.77 61.9963 45.12 61.2563 45.12C59.8363 45.12 58.7663 43.97 58.7663 42.45C58.7663 40.93 59.8363 39.78 61.2563 39.78C61.9463 39.78 62.5163 40.08 62.9163 40.57V39.9H64.2163V43.31C64.2163 43.58 64.3663 43.74 64.6463 43.74ZM61.5063 43.86C62.3163 43.86 62.9163 43.25 62.9163 42.45C62.9163 41.65 62.3163 41.04 61.5063 41.04C60.7063 41.04 60.1063 41.65 60.1063 42.45C60.1063 43.25 60.7063 43.86 61.5063 43.86Z" fill="#F7E4E4"/>
<defs>
<clipPath id="clip0_7509_1046">
<rect width="32" height="32" fill="white" transform="translate(24)"/>
</clipPath>
</defs>
</svg>
