<?xml version="1.0" encoding="UTF-8" standalone="no"?>
<!-- Created with Inkscape (http://www.inkscape.org/) -->

<svg
   xmlns:dc="http://purl.org/dc/elements/1.1/"
   xmlns:cc="http://creativecommons.org/ns#"
   xmlns:rdf="http://www.w3.org/1999/02/22-rdf-syntax-ns#"
   xmlns:svg="http://www.w3.org/2000/svg"
   xmlns="http://www.w3.org/2000/svg"
   xmlns:sodipodi="http://sodipodi.sourceforge.net/DTD/sodipodi-0.dtd"
   xmlns:inkscape="http://www.inkscape.org/namespaces/inkscape"
   version="1.1"
   id="svg2"
   xml:space="preserve"
   width="130"
   height="61.184387"
   viewBox="0 0 130 61.184386"
   sodipodi:docname="logo-stellium-new.svg"
   inkscape:version="0.92.5 (2060ec1f9f, 2020-04-08)"><metadata
     id="metadata27"><rdf:RDF><cc:Work
         rdf:about=""><dc:format>image/svg+xml</dc:format><dc:type
           rdf:resource="http://purl.org/dc/dcmitype/StillImage" /><dc:title></dc:title></cc:Work></rdf:RDF></metadata><defs
     id="defs6" /><sodipodi:namedview
     id="namedview4"
     pagecolor="#ffffff"
     bordercolor="#666666"
     borderopacity="1.0"
     inkscape:pageshadow="2"
     inkscape:pageopacity="0.0"
     inkscape:pagecheckerboard="0"
     showgrid="false"
     inkscape:zoom="0.56273148"
     inkscape:cx="-255.75898"
     inkscape:cy="30.592193"
     inkscape:window-width="1920"
     inkscape:window-height="1023"
     inkscape:window-x="1920"
     inkscape:window-y="33"
     inkscape:window-maximized="1"
     inkscape:current-layer="g8"
     fit-margin-top="0"
     fit-margin-left="0"
     fit-margin-right="0"
     fit-margin-bottom="0" /><g
     id="g8"
     inkscape:groupmode="layer"
     inkscape:label="ink_ext_XXXXXX"
     transform="matrix(1.3333333,0,0,-1.3333333,-215.77543,162.73886)"><g
       id="g50"
       transform="matrix(0.23150183,0,0,0.23150183,161.83156,76.165854)"><g
         transform="scale(0.1)"
         id="g10"><path
           id="path12"
           style="fill:#2c4ba6;fill-opacity:1;fill-rule:nonzero;stroke:none"
           d="m 2434.98,1867.64 c -19.68,-293.19 43.4,-363.85 -378.5,-378.46 421.9,-14.63 358.82,-85.38 378.5,-378.48 19.67,293.1 -43.41,363.85 378.49,378.48 -421.9,14.61 -358.82,85.27 -378.49,378.46 v 0"
           inkscape:connector-curvature="0" /><path
           id="path14"
           style="fill:#ee1f63;fill-opacity:1;fill-rule:nonzero;stroke:none"
           d="m 2748.3,1982.2 c -10.67,-158.95 23.53,-197.26 -205.2,-205.19 228.73,-7.92 194.53,-46.28 205.2,-205.19 10.67,158.91 -23.53,197.27 205.2,205.19 -228.73,7.93 -194.53,46.24 -205.2,205.19 v 0"
           inkscape:connector-curvature="0" /><path
           id="path16"
           style="fill:#ee1f63;fill-opacity:1;fill-rule:nonzero;stroke:none"
           d="m 3037.02,1702.42 c -6.79,-101.17 14.98,-125.55 -130.6,-130.6 145.58,-5.04 123.81,-29.45 130.6,-130.59 6.79,101.14 -14.98,125.55 130.61,130.59 -145.59,5.05 -123.82,29.43 -130.61,130.6 v 0"
           inkscape:connector-curvature="0" /><path
           id="path18"
           style="fill:#040606;fill-opacity:1;fill-rule:nonzero;stroke:none"
           d="m 3528.54,1072.75 c 48.62,46.81 103.67,67.07 167.46,63.56 65.76,-3.62 115.81,-33.11 152.39,-91.92 8.33,9.03 15.67,16.32 22.26,24.22 78.22,93.78 239.97,92.38 305.98,-5.41 17.45,-25.86 31.04,-59.94 31.67,-90.552 3.54,-171.988 2.47,-344.078 3.33,-516.136 0.07,-14.852 -4.98,-20.973 -20.41,-20.621 -33.56,0.769 -67.21,1.429 -100.71,-0.2 -22.2,-1.082 -29.54,5.629 -29.37,28.598 0.98,140.141 0.85,280.301 0.05,420.441 -0.11,19.75 -2.43,40.86 -9.73,58.918 -15.88,39.27 -53.77,53.633 -106.71,44.68 -38.54,-6.519 -69.21,-37.5 -73.04,-74.699 -1.35,-13.129 -1.3,-26.438 -1.31,-39.66 -0.09,-136.258 -0.49,-272.52 0.38,-408.77 0.14,-21.769 -4.99,-30.898 -28.44,-29.551 -31.91,1.84 -64.07,1.661 -96,0.043 -21.27,-1.082 -26.32,7.079 -26.21,26.957 0.7,135.473 0.36,270.954 0.34,406.43 0,9.352 0.19,18.711 -0.38,28.031 -4.96,81.012 -79.07,120.931 -149.88,80.211 -33.01,-18.992 -45.09,-49.851 -45.08,-86.59 0.05,-140.152 -0.01,-280.3 -0.03,-420.449 0,-6.23 1.86,-13.371 -0.58,-18.461 -2.94,-6.121 -9.41,-14.8 -14.58,-14.961 -39.78,-1.23 -79.64,-1.238 -119.43,0.02 -5.06,0.16 -10.77,9.262 -14.35,15.301 -2.06,3.48 -0.44,9.129 -0.44,13.8 -0.01,207.891 -0.02,415.782 0,623.67 0,31.12 0.06,31.17 30.72,31.24 29.67,0.06 59.4,-1.07 89,0.35 21.25,1.02 33.29,-3.99 29.92,-27.97 -0.68,-4.89 1.47,-10.18 3.18,-20.52"
           inkscape:connector-curvature="0" /><path
           id="path20"
           style="fill:#040606;fill-opacity:1;fill-rule:nonzero;stroke:none"
           d="m 1262.13,837.828 c 53.78,0 107.56,-0.027 161.34,0.012 32.71,0.031 35.58,3.691 27.39,34.808 -0.98,3.723 -2.55,7.313 -4.01,10.903 -30.96,76.027 -105.07,123.279 -186.14,118.689 -86.72,-4.908 -160.48,-60.81 -183.56,-138.83 -5.14,-17.371 -1.74,-26.16 18.95,-25.851 55.33,0.832 110.68,0.281 166.03,0.269 z m 305.7,-217.508 c 0,-46.05 0.71,-86.308 -0.75,-126.492 -0.22,-6.168 -9.31,-14.207 -16.18,-17.617 -93.94,-46.602 -193.71,-62 -297.64,-53.172 -68.63,5.832 -133.45,24.449 -191.5,62.16 -93.537,60.75 -143.588,149.192 -150.502,258.449 -9.508,150.282 45.18,272.502 180.092,348.452 163.9,92.26 396.9,44.72 485.44,-141.862 29.54,-62.25 38.68,-127.679 30.3,-195.59 -4.02,-32.578 -5.41,-32.957 -38.02,-32.957 -153.82,-0.043 -307.64,0 -461.46,-0.043 -36.12,-0.007 -39.22,-4.687 -24.78,-37.109 29.59,-66.379 82.84,-103.289 151.88,-119.328 105.91,-24.609 205.67,-3.07 302.04,41.871 8.24,3.84 16.72,7.137 31.08,13.238"
           inkscape:connector-curvature="0" /><path
           id="path22"
           style="fill:#040606;fill-opacity:1;fill-rule:nonzero;stroke:none"
           d="m 3055.8,496.82 c -10.64,-9.941 -16.55,-15.5 -22.51,-21.019 -89.88,-83.281 -242.62,-72.153 -313.96,23.418 -22.31,29.883 -36.57,64.222 -36.94,101.461 -1.66,165.781 -1.67,331.57 -2.75,497.36 -0.11,17.46 6.98,23.35 23.71,23 32.78,-0.67 65.6,-0.98 98.36,0.14 20.94,0.71 28.63,-6.25 28.49,-28.15 -0.87,-133.889 -0.64,-267.792 -0.18,-401.678 0.07,-18.493 0.26,-38.02 5.94,-55.262 17.51,-53.16 67.08,-78.918 127.5,-69.11 54.37,8.829 93.07,49.508 93.53,103.481 1.2,138.559 0.67,277.117 0.83,415.679 0.04,34.66 0.03,34.7 34.42,34.75 30.45,0.05 60.91,-0.53 91.34,0.17 16.3,0.38 24.01,-4.26 23.98,-22.34 -0.44,-214.072 -0.38,-428.15 -0.07,-642.22 0.02,-14.781 -4.45,-20.988 -20.08,-20.629 -35.89,0.82 -71.84,1.059 -107.72,-0.082 -18.14,-0.578 -23.43,6.641 -22.12,23.391 0.81,10.32 -0.87,20.832 -1.77,37.64"
           inkscape:connector-curvature="0" /><path
           id="path24"
           style="fill:#040606;fill-opacity:1;fill-rule:nonzero;stroke:none"
           d="M 8.10156,606.512 C 57.5664,587.949 103.039,567.77 150.449,554.461 c 22.614,-6.352 49.883,-3.66 73.348,1.969 50.43,12.101 66.785,65.05 32.293,103.781 -16.238,18.238 -37.574,32.519 -58.207,46.18 C 163.484,729.16 126.898,748.68 92.8203,771.879 0.707031,834.609 -26.8633,950.98 28.3008,1043.4 c 33.8047,56.65 88.4802,82.48 150.9332,90.72 63.579,8.39 126.153,-0.43 185.485,-26.1 7.121,-3.08 17.508,-10.19 17.722,-15.77 1.532,-39.9 0.817,-79.89 0.817,-120.5 -32.942,10.902 -61.633,25.043 -91.692,29.1 -33.199,4.49 -69.363,6.06 -101.164,-2.471 -48.535,-13.024 -56.422,-60.719 -17.453,-93.309 23.653,-19.789 51.656,-34.558 78.305,-50.59 50.824,-30.589 102.387,-59.8 135.934,-111.57 C 438.453,663.789 431.012,544.309 368.832,480.34 321.848,432 260.266,420.578 196.762,420.48 136.09,420.379 77.2773,432.719 24.1719,464.309 c -6.2578,3.722 -15.20706,10.25 -15.36721,15.703 -1.26563,43.199 -0.70313,86.449 -0.70313,126.5"
           inkscape:connector-curvature="0" /><path
           id="path26"
           style="fill:#040606;fill-opacity:1;fill-rule:nonzero;stroke:none"
           d="m 566.457,958.949 c 0.258,19.762 -6.484,28.797 -27.238,27.379 -17.867,-1.219 -35.899,0.219 -53.836,-0.328 -13.68,-0.414 -20.02,4.641 -19.785,18.95 0.515,31.9 0.59,63.82 -0.035,95.72 -0.301,15.46 6.714,21.04 21.234,20.23 7,-0.4 14.047,-0.02 21.07,0.01 65.348,0.31 57.942,-6.37 58.344,59.34 0.148,24.13 0.668,2.8 -0.129,26.9 -0.57,17.23 6.422,23.36 23.566,22.9 34.321,-0.92 68.692,-0.83 103.016,-0.04 17.016,0.39 24.09,-5.88 23.672,-23.09 -0.719,-29.56 -0.164,-13.67 -0.133,-43.24 0.039,-42.79 0.043,-42.79 44.027,-42.8 23.418,0 46.844,-0.48 70.243,0.12 15.675,0.39 22.828,-5.41 22.445,-21.78 -0.703,-30.33 -0.895,-60.72 0.07,-91.04 0.571,-17.985 -7.539,-22.731 -23.968,-22.309 -30.422,0.785 -60.883,-0.25 -91.313,0.363 -14.992,0.305 -21.449,-5.882 -21.398,-20.554 0.363,-110.5 -0.723,-221.032 1.421,-331.5 1.004,-51.649 32.915,-75.91 85.504,-71.871 49.512,3.812 49.52,3.812 49.52,-46.68 0,-21.008 1.551,-42.207 -0.828,-62.949 -0.988,-8.61 -9.125,-21.828 -16.215,-23.461 C 765.434,413 697.59,416.75 637.449,462.082 c -41.691,31.43 -64.269,75.289 -66.808,125.816 -3.43,68.274 -0.856,136.84 -0.856,205.282 l -3.328,165.769"
           inkscape:connector-curvature="0" /><path
           id="path28"
           style="fill:#040606;fill-opacity:1;fill-rule:nonzero;stroke:none"
           d="m 1732.38,904.078 c 0,145.822 0.46,291.652 -0.49,437.472 -0.14,22.55 6.17,30.97 30.3,29.51 30.34,-1.84 60.96,-1.72 91.32,-0.03 23.37,1.29 28.71,-7.72 28.65,-28.69 -0.65,-216.48 -0.39,-432.961 -0.39,-649.442 0,-77.418 -0.73,-154.847 0.48,-232.257 0.32,-20.411 -6.5,-25.879 -26.74,-24.961 -32.73,1.492 -65.64,1.402 -98.38,0.019 -19.54,-0.82 -25.23,5.449 -25.14,24.153 0.7,148.07 0.39,296.148 0.39,444.226"
           inkscape:connector-curvature="0" /><path
           id="path30"
           style="fill:#040606;fill-opacity:1;fill-rule:nonzero;stroke:none"
           d="m 2041.71,902.531 c 0,144.319 -0.01,288.639 0,432.959 0.01,35.1 0.03,35.12 37.54,35.13 29.68,0.02 59.38,-0.67 89.03,0.22 17.41,0.53 23.28,-5.98 23.07,-22.44 -0.69,-54.86 -0.25,-109.74 -0.25,-164.61 0,-239.778 -0.32,-479.56 0.53,-719.341 0.08,-22.711 -5.79,-30.539 -29.89,-28.859 -29.52,2.058 -59.32,0.469 -89,0.488 -30.96,0.024 -31.02,0.043 -31.02,28.992 -0.02,145.821 -0.01,291.641 -0.01,437.461"
           inkscape:connector-curvature="0" /><path
           id="path32"
           style="fill:#040606;fill-opacity:1;fill-rule:nonzero;stroke:none"
           d="m 2510.78,776.602 c 0,-103.512 0.02,-207.02 0,-310.543 -0.01,-29.918 -0.06,-29.938 -31.04,-29.95 -32.79,-0.019 -65.58,0.602 -98.34,-0.257 -15.34,-0.391 -20.25,5.109 -20.22,20.238 0.35,214.801 0.34,429.609 0.03,644.42 -0.02,15.26 5.84,20.72 20.71,20.49 35.12,-0.53 70.27,-0.9 105.36,0.18 18.8,0.59 23.92,-6.84 23.81,-24.71 -0.63,-106.618 -0.31,-213.251 -0.31,-319.868"
           inkscape:connector-curvature="0" /><path
           id="path34"
           style="fill:#ee1f63;fill-opacity:1;fill-rule:nonzero;stroke:none"
           d="m 1302.79,95.1484 c 4.65,0 8.69,1.8008 12.11,5.3906 3.41,3.59 5.13,7.832 5.13,12.731 0,4.89 -1.72,9.128 -5.13,12.718 -3.42,3.594 -7.46,5.391 -12.11,5.391 h -44.5 V 95.1484 Z m 0,67.4106 c 12.94,0 24,-4.809 33.16,-14.438 9.16,-9.633 13.74,-21.25 13.74,-34.851 0,-13.6098 -4.58,-25.2309 -13.74,-34.8598 -9.16,-9.6211 -20.22,-14.4414 -33.16,-14.4414 h -44.5 V 2.05859 h -29.67 V 162.559 h 74.17"
           inkscape:connector-curvature="0" /><path
           id="path36"
           style="fill:#ee1f63;fill-opacity:1;fill-rule:nonzero;stroke:none"
           d="m 1462.26,33.25 h 79.84 V 2.05859 H 1432.59 V 162.559 h 29.67 V 33.25"
           inkscape:connector-curvature="0" /><path
           id="path38"
           style="fill:#ee1f63;fill-opacity:1;fill-rule:nonzero;stroke:none"
           d="m 1664.27,68.0898 h 36.43 l -0.22,0.2422 -18.1,54.34 -17.45,-52.7423 z m 36.43,94.4692 53.67,-160.50041 h -31.63 l -11.35,33.92971 -0.22,0.6914 h -57.37 l -0.22,-0.6914 -11.34,-33.92971 h -31.64 l 53.45,160.50041 h 36.65"
           inkscape:connector-curvature="0" /><path
           id="path40"
           style="fill:#ee1f63;fill-opacity:1;fill-rule:nonzero;stroke:none"
           d="m 1899.22,31.1797 c 13.53,0 25.02,5.1211 34.47,15.3594 l 22.04,-21.3203 C 1944.82,13.4492 1931.8,5.73047 1916.68,2.05859 1910.86,0.691406 1905,0 1899.11,0 c -5.89,0 -11.67,0.691406 -17.34,2.05859 -17.6,4.13282 -32.14,13.67971 -43.63,28.66021 -11.49,14.9804 -17.23,32.1796 -17.23,51.5898 0,12.8398 2.65,24.9214 7.96,36.2304 5.3,11.313 12.58,20.789 21.81,28.43 9.24,7.64 19.6,12.84 31.09,15.59 5.67,1.382 11.45,2.07 17.34,2.07 5.89,0 11.75,-0.688 17.57,-2.07 15.12,-3.668 28.14,-11.387 39.05,-23.149 l -22.04,-21.332 c -9.45,10.242 -20.94,15.363 -34.47,15.363 -13.38,0 -24.83,-5 -34.36,-15.011 -9.53,-10.02 -14.29,-22.0589 -14.29,-36.1214 0,-14.0586 4.76,-26.0977 14.29,-36.1094 9.53,-10.0078 20.98,-15.0195 34.36,-15.0195"
           inkscape:connector-curvature="0" /><path
           id="path42"
           style="fill:#ee1f63;fill-opacity:1;fill-rule:nonzero;stroke:none"
           d="m 2147.26,131.379 h -79.84 V 97.8984 h 70.03 V 66.7188 h -70.03 V 33.25 h 79.84 V 2.05859 H 2037.75 V 162.559 h 109.51 v -31.18"
           inkscape:connector-curvature="0" /><path
           id="path44"
           style="fill:#ee1f63;fill-opacity:1;fill-rule:nonzero;stroke:none"
           d="m 2359.75,162.559 h 24.43 V 2.05859 h -29.89 V 93.5508 l -27.7,-47.6992 -17.46,-29.8008 -17.45,29.8008 -27.7,47.6992 V 2.05859 H 2234.3 V 162.559 h 24.22 l 5.46,-9.399 45.15,-77.2694 45.16,77.2694 5.46,9.399"
           inkscape:connector-curvature="0" /><path
           id="path46"
           style="fill:#ee1f63;fill-opacity:1;fill-rule:nonzero;stroke:none"
           d="m 2585.31,131.379 h -79.84 V 97.8984 h 70.03 V 66.7188 h -70.03 V 33.25 h 79.84 V 2.05859 H 2475.8 V 162.559 h 109.51 v -31.18"
           inkscape:connector-curvature="0" /><path
           id="path48"
           style="fill:#ee1f63;fill-opacity:1;fill-rule:nonzero;stroke:none"
           d="m 2760.49,162.559 h 29.67 V 2.05859 h -24.21 L 2702.03,99.2813 V 2.05859 h -29.67 V 162.559 h 24.21 l 63.92,-97.2192 v 97.2192"
           inkscape:connector-curvature="0" /><path
           id="path50"
           style="fill:#ee1f63;fill-opacity:1;fill-rule:nonzero;stroke:none"
           d="m 2870.44,162.559 h 112.57 v -31.18 h -41.45 V 2.05859 h -29.67 V 131.379 h -41.45 v 31.18"
           inkscape:connector-curvature="0" /></g></g></g></svg>