<svg xmlns="http://www.w3.org/2000/svg" width="509.39" height="200" viewBox="0 0 509.39 200">
  <defs>
    <style>
      .cls-1 {
        fill: #006a93;
      }
    </style>
  </defs>
  <g id="Calque_2" data-name="Calque 2">
    <g id="Calque_1-2" data-name="Calque 1">
      <g>
        <g>
          <path d="M175.16,101a43.26,43.26,0,1,0,0,86.51,42.87,42.87,0,0,0,31.59-13.81l1-1.07-6.63-6.12-1,1a34.27,34.27,0,0,1-58.93-18.73h27.71c13.83,0,27.46-12.27,36.49-20.4,1.5-1.35,2.84-2.56,4-3.58l3.06-2.8L210,118.72A42.84,42.84,0,0,0,175.16,101Zm-6.24,38.68H141.21a34.46,34.46,0,0,1,33.95-29.72A34.09,34.09,0,0,1,200,120.86l-.91.82C190.74,129.26,179.27,139.64,168.92,139.64Z"/>
          <rect x="221.61" y="133.4" width="46.27" height="9.14"/>
          <path class="cls-1" d="M317.44,102.51h-37v9h2.95v74.43h9.14V161.1H318.3c16.59,0,30.08-13.18,30.08-29.38C348.38,115.34,334.79,102.51,317.44,102.51Zm-24.93,9h24.75c12.12,0,22,9.08,22,20.24s-9.86,20.24-22,20.24H292.51Z"/>
          <path class="cls-1" d="M409.5,137c6.49-3.58,10-8.62,10-14.44,0-12-13.3-20-25.73-20H360.93v9h2.95v74.43H402.8c14.14,0,26.08-11.07,26.08-24.17C428.88,152.33,422.24,141.29,409.5,137Zm-6.7,39.81H373V142.54h25.09c13.93,0,21.64,11.35,21.64,19.2C419.75,169.89,412,176.77,402.8,176.77ZM390.66,133.4H373V111.48h20.76c9.78,0,16.6,5.82,16.6,11C410.38,129,402.45,133.4,390.66,133.4Z"/>
          <path class="cls-1" d="M477.25,138.19c-12.2-4.05-23.73-7.87-23.73-16.36,0-4.09,7.88-11.91,20.24-11.91,8.15,0,15.13,2.25,20.24,6.51v2.86h9.14v-6.74l-1.3-1.29c-8.72-8.52-20.08-10.3-28.08-10.3-15.37,0-29.38,9.94-29.38,20.87,0,15,16.35,20.43,30.78,25.22,12.9,4.28,25.09,8.33,25.09,18,0,5.14-7.19,13.3-26.49,13.3-15.61,0-23.2-5.46-26.49-9V166h-9v6.62l.83,1.11c3.26,4.13,13.16,13.73,34.62,13.73s35.63-9,35.63-22.44C509.39,148.86,492.31,143.19,477.25,138.19Z"/>
        </g>
        <g>
          <g>
            <g>
              <path class="cls-1" d="M130.71,47c-1.2.23-28.29,9.3-32.91,11.9s-12.67,7.92-23.7,8.18S12.16,57.91,7.71,57.66c0,0,1.42,12.31,2.6,13.21s26.51,11,31.63,11.44c3.37.33,55.83,5.15,64.77,1.93,6.69-2.39,11.67-11.73,11.67-11.73l16.07-18.8s.66-7.53-3.74-6.72"/>
              <path class="cls-1" d="M96.49,36.65s-2.87,18.14-5.94,19.23S74.89,60.11,67.78,58s-9.09-7-9.09-7,1.48-10.5,2.47-13.64,9.35-14.72,11.39-17.42c1-1.34,12.66,1,13.65,2.45S96.77,35.05,96.49,36.65"/>
              <path class="cls-1" d="M22.11,117.82c4.05-1,16.42,5.49,20.58,5.12s30.61-6.63,38.3-5.81,16.87,1.51,16.87,1.51L93,147.22s-7.51,3.39-9.3,3S69.56,140.1,58,140.54s-35.68-3.17-35.68-3.17-4.32-18.55-.24-19.55"/>
              <path class="cls-1" d="M31.71,113.15c9.29,4.12,9.32,4,12.44,4.23,3.67.37,31.24-7.2,48.88-7.58,0,0,5.34-13.44,4.88-17.18L44,87.12c-1.63-.14-11.58,19.13-12.26,26"/>
              <path class="cls-1" d="M89,159.22s4.1,18.14,4.75,22.25.42,18.38.42,18.38a98.3,98.3,0,0,1-11.54,0c-3.3-.18-6.16-.15-8.3-.12a28.74,28.74,0,0,1-3.66-.09,34.21,34.21,0,0,1-13.11-4.87c-2-1.34,5.26-22.58,6.15-27.25.63-3.21,1.19-14.48,3-17.4s21.24,5,22.28,9.13"/>
              <path class="cls-1" d="M47.34,146s-18.12-3.58-22.79-4.16S-1.83,180.45.12,181.19c16.61,6.21,25.62,8.52,31.84,10.62,3.13,1,8.06-13.18,12.46-21.24,4.75-8.7,2.92-24.53,2.92-24.53"/>
            </g>
            <g>
              <path class="cls-1" d="M95.75,18.52,116,1.58,65.49,0,36.73,25.22,58.32,27,58,32.23s9-4.57,18.2-5.36a101.61,101.61,0,0,1,18.9.47s.14-12.82-7.82-14.55-19.36-.66-25.11,2.58A50.6,50.6,0,0,1,83.77,10C94.82,9.74,95.75,18.52,95.75,18.52Z"/>
              <polygon class="cls-1" points="110.17 6.07 109.7 11.9 107.18 27.11 113.16 27.11 110.8 11.9 111.27 5.2 110.17 6.07"/>
              <path class="cls-1" d="M58.79,33.51a41.71,41.71,0,0,1,4.49-2L61.37,34.7Z"/>
            </g>
            <polygon class="cls-1" points="92.28 28.29 95.25 28.47 93.94 30.74 92.28 28.29"/>
          </g>
          <polygon class="cls-1" points="147.96 5.2 149.49 15.88 160.04 18.14 150.35 22.9 151.45 33.65 143.93 25.91 134.09 30.28 139.09 20.73 131.91 12.7 142.53 14.52 147.96 5.2"/>
        </g>
      </g>
    </g>
  </g>
</svg>
