<svg xmlns="http://www.w3.org/2000/svg" width="130" height="63" viewBox="0 0 130 63"><defs><radialGradient id="3dl3a" cx="64.98" cy="43.65" r="2.28" gradientUnits="userSpaceOnUse"><stop offset="0" stop-opacity=".79"/><stop offset="1" stop-opacity="0"/></radialGradient></defs><g><g><g><path d="M2.71 26.956c0-1.35 1.87-2.224 4.019-2.224 1.396 0 2.941.475 3.99 1.275v.623h1.797v-1.398l-.3-.275c-1.547-1.548-3.891-1.997-5.487-1.997-3.22 0-5.816 1.598-5.816 3.996 0 5.716 10.706 4.819 10.706 9.59 0 1.097-1.45 2.447-4.89 2.447-1.873 0-3.892-.925-4.918-1.7v-.624H.04v1.423l.274.275c1.073.973 3.696 2.422 6.415 2.422 4.09 0 6.66-1.823 6.66-4.243 0-6.27-10.679-5.595-10.679-9.59"/></g><g><path d="M17.14 25.861h1.77v-.674h4.466v15.158h1.771V25.187h4.466v.674h1.77V23.39H17.14z"/></g><g><path d="M61.424 38.562h-8.01V23.38H51.62v16.955h11.6v-2.447h-1.796z"/></g><g><path d="M76.913 38.562h-8.007V23.38H67.11v16.955h11.601v-2.447h-1.798z"/></g><g><path d="M83.42 40.521h1.784V28.98H83.42z"/></g><g><path d="M101.53 34.542a4.455 4.455 0 0 1-4.444 4.446c-2.445 0-4.465-2-4.465-4.446V23.38H90.85v11.162a6.241 6.241 0 0 0 6.236 6.242 6.241 6.241 0 0 0 6.238-6.242v-9.364h.65V23.38h-2.444z"/></g><g><path d="M129.485 38.568l-2.07-15.608h-1.595l-7.011 15.858-7.038-15.858h-1.62l-2.271 17.28 1.797.2 1.796-13.76 6.238 14.11h2.169l6.238-14.11 1.797 13.66h2.02v-1.772z"/></g><g><path d="M45.563 38.601h-8.01v-5.37h4.444v-1.77h-4.443v-6.244h7.135v.676h1.77V23.42H35.11v1.797h.649v15.16H47.36v-2.45h-1.798z"/></g><g opacity=".5"><path fill="#e92a5d" d="M99.255.01l2.193 3.174 3.737-.95-2.339 3.07 2.06 3.258-3.644-1.278-2.46 2.971.092-3.861-3.584-1.426 3.695-1.107z"/></g><g opacity=".75"><path fill="#e92a5d" d="M92.513 11.82l1.362 2.634 2.942-.37-2.076 2.114L96 18.886l-2.648-1.325-2.162 2.024.44-2.929-2.601-1.431 2.924-.489z"/></g><g><path fill="#e92a5d" d="M84.068 21.16l.817 2.286 2.415.024-1.916 1.478.728 2.32-2.003-1.366-1.974 1.402.68-2.326-1.945-1.447 2.42-.072z"/></g><g><path fill="#e92a5d" d="M33.798 54.964c.541.379.816 1.008.816 1.87 0 .836-.275 1.477-.819 1.905-.537.424-1.282.64-2.215.64h-1.297v3.275H29.21V54.4h2.32c.972 0 1.735.19 2.268.564zm-3.515 3.495h1.161c.725 0 1.264-.133 1.6-.394.33-.258.497-.672.497-1.233 0-.558-.17-.956-.506-1.18-.345-.231-.898-.349-1.64-.349h-1.112z"/></g><g><path fill="#e92a5d" d="M38.752 54.4H37.68v8.254h4.64v-.938h-3.568z"/></g><g><path fill="#e92a5d" d="M48.047 54.455l2.793 8.2h-1.132l-.813-2.55H46l-.824 2.55H44.08l2.823-8.255h1.125zm.186 3.559a96.118 96.118 0 0 1-.785-2.555 50.633 50.633 0 0 1-.777 2.556l-.386 1.197h2.335z"/></g><g><path fill="#e92a5d" d="M58.233 60.937a3.16 3.16 0 0 1-.87.685 2.182 2.182 0 0 1-.99.225c-.505 0-.95-.136-1.324-.404-.375-.269-.668-.656-.871-1.153-.204-.5-.308-1.098-.308-1.774 0-.675.107-1.267.32-1.76.21-.488.509-.87.888-1.135a2.282 2.282 0 0 1 1.331-.398c.621 0 1.164.256 1.614.76l.062.07.611-.73-.048-.051a3.313 3.313 0 0 0-.97-.72 2.828 2.828 0 0 0-1.28-.292c-.693 0-1.325.176-1.877.523-.552.349-.989.853-1.298 1.5-.307.644-.463 1.404-.463 2.258 0 .862.154 1.624.457 2.265.304.642.732 1.143 1.272 1.486.54.343 1.162.518 1.847.518.52 0 .992-.102 1.402-.304.41-.202.787-.503 1.12-.895l.046-.054-.61-.687z"/></g><g><path fill="#e92a5d" d="M62.873 58.774h3.1v-.926h-3.1v-2.51h3.679V54.4H61.8v8.254h4.874v-.938h-3.801z"/></g><g><path fill="#e92a5d" d="M73.73 58.888a71.572 71.572 0 0 0-.526 1.564l-.54-1.564-1.586-4.434-.02-.054H69.8v8.254h.987v-4.761c0-.456-.03-1.096-.089-1.904l.498 1.427 1.587 4.348.019.053h.754l1.595-4.403.503-1.442a32.972 32.972 0 0 0-.083 1.92v4.762h1.011V54.4h-1.27z"/></g><g><path fill="#e92a5d" d="M81.293 58.774h3.1v-.926h-3.1v-2.51h3.679V54.4H80.22v8.254h4.874v-.938h-3.801z"/></g><g><path fill="#e92a5d" d="M93.02 58.866c0 .341.012.72.036 1.156.025.424.041.7.05.833l.018.268-.765-1.436-3.052-5.246-.023-.041H88.22v8.254h1.024V58.14c0-.542-.03-1.178-.086-1.89l-.02-.322.767 1.439 3.051 5.247.024.04h1.062V54.4H93.02z"/></g><g><path fill="#e92a5d" d="M96.91 54.4v.939h2.485v7.315h1.073V55.34h2.473V54.4z"/></g><g><path fill="url(#3dl3a)" d="M137.901 51.417c-11.691-4.109-39.936-7.007-72.925-7.007S3.746 47.308-7.95 51.417"/></g></g></g></svg>